<svg xmlns="http://www.w3.org/2000/svg" xmlns:xlink="http://www.w3.org/1999/xlink" width="232.62" height="231.59" viewBox="0 0 232.62 231.59"><defs><linearGradient id="a" y1="115.8" x2="232.62" y2="115.8" gradientUnits="userSpaceOnUse"><stop offset="0" stop-color="#7fc7e6"/><stop offset="0.23" stop-color="#7db2da"/><stop offset="0.72" stop-color="#777dbb"/><stop offset="1" stop-color="#745ba7"/></linearGradient></defs><title>salesforce-trailhead</title><path d="M195.21,101.68h-5.9a.75.75,0,0,1,0-1.5h5.9a.75.75,0,0,1,0,1.5Z" fill="#a6a5a5"/><path d="M152.58,53.93a.76.76,0,0,1-.75-.75,3.19,3.19,0,0,0-5.91-1.67.75.75,0,1,1-1.28-.79,4.69,4.69,0,0,1,8.69,2.46A.76.76,0,0,1,152.58,53.93Z" fill="#a6a5a5"/><path d="M152.63,53.93a.76.76,0,0,1-.75-.75,4.69,4.69,0,0,1,8.75-2.36.76.76,0,0,1-.28,1,.75.75,0,0,1-1-.28,3.19,3.19,0,0,0-6,1.61A.76.76,0,0,1,152.63,53.93Z" fill="#a6a5a5"/><path d="M207.59,126.14a.75.75,0,0,1-.75-.75,3.19,3.19,0,0,0-5.91-1.66.75.75,0,0,1-1.27-.79,4.68,4.68,0,0,1,8.68,2.45A.74.74,0,0,1,207.59,126.14Z" fill="#a6a5a5"/><path d="M207.64,126.14a.75.75,0,0,1-.75-.75,4.69,4.69,0,0,1,8.75-2.35.74.74,0,0,1-.27,1,.75.75,0,0,1-1-.27,3.19,3.19,0,0,0-6,1.6A.74.74,0,0,1,207.64,126.14Z" fill="#a6a5a5"/><circle cx="185.2" cy="100.9" r="0.64" fill="#a6a5a5"/><path d="M29.41,125a.75.75,0,0,1-.75-.75,3.19,3.19,0,0,0-5.91-1.67.75.75,0,1,1-1.28-.78,4.69,4.69,0,0,1,8.69,2.45A.76.76,0,0,1,29.41,125Z" fill="#a6a5a5"/><path d="M29.46,125a.75.75,0,0,1-.75-.75,4.69,4.69,0,0,1,8.74-2.36.75.75,0,1,1-1.29.76,3.19,3.19,0,0,0-5.95,1.6A.76.76,0,0,1,29.46,125Z" fill="#a6a5a5"/><path d="M87.78,72.78h-5a.75.75,0,1,1,0-1.5h5a.75.75,0,0,1,0,1.5Z" fill="#a6a5a5"/><path d="M87.07,77.41H77.45a.75.75,0,0,1,0-1.5h9.62a.75.75,0,0,1,0,1.5Z" fill="#a6a5a5"/><path d="M81.73,82H72.11a.75.75,0,0,1,0-1.5h9.62a.75.75,0,0,1,0,1.5Z" fill="#a6a5a5"/><path d="M71.76,86.67h-5a.75.75,0,0,1,0-1.5h5a.75.75,0,0,1,0,1.5Z" fill="#a6a5a5"/><path d="M117.34,49.63H115.2a.75.75,0,0,1,0-1.5h2.14a.75.75,0,0,1,0,1.5Z" fill="#a6a5a5"/><path d="M115.56,54.26h-5.34a.75.75,0,0,1,0-1.5h5.34a.75.75,0,0,1,0,1.5Z" fill="#a6a5a5"/><path d="M113.78,58.89h-8.55a.75.75,0,0,1,0-1.5h8.55a.75.75,0,0,1,0,1.5Z" fill="#a6a5a5"/><path d="M114.49,63.52H100.25a.75.75,0,0,1,0-1.5h14.24a.75.75,0,0,1,0,1.5Z" fill="#a6a5a5"/><path d="M103.81,68.15H95.26a.75.75,0,0,1,0-1.5h8.55a.75.75,0,0,1,0,1.5Z" fill="#a6a5a5"/><path d="M180.56,93.08a.73.73,0,0,1-.53-.22L151.11,64a1.86,1.86,0,0,0-2.64,0l-5.15,5.15A.75.75,0,0,1,142.26,68l5.15-5.15a3.36,3.36,0,0,1,4.76,0L181.09,91.8a.75.75,0,0,1,0,1.06A.74.74,0,0,1,180.56,93.08Z" fill="#a6a5a5"/><path d="M90.36,67.79a.74.74,0,0,1-.53-.22.75.75,0,0,1,0-1.06l24.46-24.46a3.37,3.37,0,0,1,4.76,0l10.66,10.67A4.46,4.46,0,0,0,132.83,54,5.86,5.86,0,0,1,137,55.74l9.17,9.17a.74.74,0,0,1,0,1.06.75.75,0,0,1-1.06,0L136,56.8a4.39,4.39,0,0,0-3.12-1.29,5.9,5.9,0,0,1-4.18-1.73L118,43.11a1.88,1.88,0,0,0-2.64,0L90.89,67.57A.71.71,0,0,1,90.36,67.79Z" fill="#a6a5a5"/><path d="M58.47,89.43a.74.74,0,0,1-.53-.22.75.75,0,0,1,0-1.06l24.6-24.54a3.37,3.37,0,0,1,4.76,0l8.83,8.83a.75.75,0,0,1-1.06,1.06l-8.83-8.83a1.88,1.88,0,0,0-2.64,0L59,89.21A.73.73,0,0,1,58.47,89.43Z" fill="#a6a5a5"/><path d="M151.55,70.46h-3.77a.75.75,0,0,1,0-1.5h3.77a.75.75,0,0,1,0,1.5Z" fill="#a6a5a5"/><path d="M151.55,74.8h-7a.75.75,0,0,1,0-1.5h7a.75.75,0,0,1,0,1.5Z" fill="#a6a5a5"/><path d="M193.18,80.7H176.29a.75.75,0,0,1,0-1.5h15.37a6.41,6.41,0,0,0-2.2-4.82c-3-2.41-8.2-1.27-8.25-1.26l-.46.11-.29-.37c-3.23-4-6.49-6-9.66-6.12A7.85,7.85,0,0,0,165.19,69a.75.75,0,0,1-1.11-1,9.21,9.21,0,0,1,6.76-2.71c3.54.11,7.06,2.23,10.49,6.33,1.47-.25,6-.79,9.06,1.63,1.85,1.48,2.79,3.75,2.79,6.75Z" fill="#a6a5a5"/><path d="M60.57,80.7H39.44V80c0-3,.94-5.27,2.79-6.75,3.05-2.42,7.59-1.88,9.06-1.63,3.43-4.1,7-6.22,10.49-6.33A9.46,9.46,0,0,1,68.54,68a.76.76,0,0,1,0,1.06A.75.75,0,0,1,67.44,69h0A8,8,0,0,0,62,66.74H61.8c-3.17.11-6.41,2.17-9.64,6.12l-.29.37-.46-.11S46.19,72,43.16,74.38A6.41,6.41,0,0,0,41,79.2H60.57a.75.75,0,1,1,0,1.5Z" fill="#a6a5a5"/><path d="M140.88,43.06H130.7a.75.75,0,0,1,0-1.5h8.66a5.33,5.33,0,0,0-1.84-4c-2.56-2-7-1.07-7-1.06l-.45.1-.3-.36c-2.75-3.38-5.52-5.14-8.21-5.22A6.71,6.71,0,0,0,116.82,33a.76.76,0,0,1-1.06,0,.75.75,0,0,1-.05-1.06,8.2,8.2,0,0,1,5.89-2.36c3.05.09,6.1,1.92,9.05,5.43,1.33-.23,5.19-.64,7.8,1.43a7.12,7.12,0,0,1,2.43,5.88Z" fill="#a6a5a5"/><path d="M103.44,43.06H91.74v-.75a7.12,7.12,0,0,1,2.43-5.88c2.61-2.07,6.47-1.66,7.8-1.43,3-3.51,6-5.34,9-5.43a8.05,8.05,0,0,1,5.89,2.36.75.75,0,0,1,0,1.06.76.76,0,0,1-1.06,0A6.62,6.62,0,0,0,111,31.07c-2.69.09-5.44,1.85-8.19,5.22l-.3.36-.45-.1s-4.44-1-7,1.06a5.36,5.36,0,0,0-1.84,4h10.18a.75.75,0,0,1,0,1.5Z" fill="#a6a5a5"/><path d="M115.18,231.59c-37.45,0-62.06-9.52-62.42-9.66a207.22,207.22,0,0,1-49-24A9,9,0,0,1,0,190.61V174.1c0-32.84,11.08-65.94,11.19-66.27A186.13,186.13,0,0,1,112.76.73a9,9,0,0,1,7.11,0A186.17,186.17,0,0,1,221.48,107.94c.1.26,11.14,28.4,11.14,66.16v16.51a9,9,0,0,1-3.87,7.38c-17.25,11.49-33.5,19.42-49.69,24.25A223.78,223.78,0,0,1,115.18,231.59ZM116.31,1.5a7.4,7.4,0,0,0-3,.61A184.62,184.62,0,0,0,12.6,108.32c-.1.32-11.1,33.19-11.1,65.78v16.51a7.5,7.5,0,0,0,3.08,6.08,205.6,205.6,0,0,0,48.69,23.83c.58.22,55,21.25,125.36.28l.21.72-.21-.72c16.05-4.78,32.17-12.65,49.28-24.05a7.49,7.49,0,0,0,3.21-6.14V174.1c0-37.47-10.94-65.35-11.05-65.62A184.58,184.58,0,0,0,119.28,2.11,7.48,7.48,0,0,0,116.31,1.5Z" fill="#a6a5a5"/><path d="M120,219.81h-3.67A183.76,183.76,0,0,1,16.16,188.94a8.15,8.15,0,0,1-3.35-6.57V167.69a165.78,165.78,0,0,1,2.61-31.77.75.75,0,0,1,.87-.61.76.76,0,0,1,.6.87,164.57,164.57,0,0,0-2.58,31.5v14.69A6.63,6.63,0,0,0,17,187.71a182.16,182.16,0,0,0,99.3,30.6h4.17a182.53,182.53,0,0,0,95-30.55,6.61,6.61,0,0,0,2.83-5.39V167.69A164.61,164.61,0,0,0,215.87,137a.75.75,0,1,1,1.47-.26,165.88,165.88,0,0,1,2.47,31v14.67a8.1,8.1,0,0,1-3.48,6.63,184.12,184.12,0,0,1-95.81,30.81ZM24,108.36a.86.86,0,0,1-.27,0,.76.76,0,0,1-.44-1,164.7,164.7,0,0,1,11-23.5.75.75,0,1,1,1.3.74,164.4,164.4,0,0,0-10.89,23.29A.76.76,0,0,1,24,108.36Zm184.6-.11a.76.76,0,0,1-.7-.49c-.17-.47-.35-.94-.53-1.4a.74.74,0,0,1,.43-1,.75.75,0,0,1,1,.42l.54,1.42a.76.76,0,0,1-.44,1A.86.86,0,0,1,208.59,108.25ZM206.12,102a.75.75,0,0,1-.69-.45A162.09,162.09,0,0,0,198,86.3a.75.75,0,0,1,1.32-.72A164.83,164.83,0,0,1,206.81,101a.75.75,0,0,1-.4,1A.72.72,0,0,1,206.12,102ZM183.81,64.3a.74.74,0,0,1-.59-.28,163.86,163.86,0,0,0-64.3-49.17,6.64,6.64,0,0,0-5.21,0,163.94,163.94,0,0,0-64,48.74.75.75,0,0,1-1.05.13.76.76,0,0,1-.13-1.06,165.56,165.56,0,0,1,64.56-49.19,8.12,8.12,0,0,1,6.38,0,165.27,165.27,0,0,1,64.89,49.62.75.75,0,0,1-.12,1A.74.74,0,0,1,183.81,64.3Z" fill="#a6a5a5"/><path d="M13.91,178a6.11,6.11,0,0,1,4.27,1.64,8.26,8.26,0,0,0,10.8,0,6.63,6.63,0,0,1,8.8,0,8,8,0,0,0,10.63,0,6.66,6.66,0,0,1,8.82,0,8.13,8.13,0,0,0,10.73,0,6.75,6.75,0,0,1,8.79,0,8.07,8.07,0,0,0,10.72,0,6.56,6.56,0,0,1,8.76,0,8.16,8.16,0,0,0,10.74,0,6.64,6.64,0,0,1,8.79,0,8.19,8.19,0,0,0,10.75,0c2.84-2.24,5.8-2.24,8.81,0,3.59,2.68,7.16,2.68,10.63,0a6.64,6.64,0,0,1,8.83,0,8.15,8.15,0,0,0,10.71,0,6.78,6.78,0,0,1,8.86,0c3.29,2.65,7.18,2.65,10.66,0,3-2.28,5.65-2.28,8.83,0,3.65,2.64,7.14,2.63,10.68,0s6.07-1.89,8.83,0l2.13,1.56,2.37,2.21a.76.76,0,0,0,.51.2.75.75,0,0,0,.51-1.3l-2.43-2.26-2.23-1.64c-2.56-1.76-6.08-3.36-10.59,0-3,2.27-5.77,2.27-8.9,0-2.33-1.68-6-3.52-10.61,0-3.77,2.85-6.88,1.59-8.82,0a8.27,8.27,0,0,0-10.74,0,6.71,6.71,0,0,1-8.82,0,8.12,8.12,0,0,0-10.7,0c-2.91,2.26-5.79,2.26-8.81,0-3.52-2.63-7.3-2.62-10.64,0a6.7,6.7,0,0,1-8.82,0,8.14,8.14,0,0,0-10.75,0,6.61,6.61,0,0,1-8.8,0,8.09,8.09,0,0,0-10.68,0,6.58,6.58,0,0,1-8.76,0,8.28,8.28,0,0,0-10.79,0,6.66,6.66,0,0,1-8.77,0,8.22,8.22,0,0,0-10.75,0,6.55,6.55,0,0,1-8.71,0,8.19,8.19,0,0,0-10.74,0,6.76,6.76,0,0,1-8.84,0,7.65,7.65,0,0,0-5.4-2,.75.75,0,0,0-.67.82A.74.74,0,0,0,13.91,178Z" fill="#a6a5a5"/><path d="M155.73,214a8.12,8.12,0,0,0-10.7,0c-2.91,2.26-5.79,2.26-8.81,0-3.52-2.64-7.3-2.63-10.64,0a6.71,6.71,0,0,1-8.82,0,8.14,8.14,0,0,0-10.75,0,6.61,6.61,0,0,1-8.8,0,8.1,8.1,0,0,0-10.68,0A7.33,7.33,0,0,1,83,215.65l3,.56a11.09,11.09,0,0,0,1.49-1,6.56,6.56,0,0,1,8.76,0,8.16,8.16,0,0,0,10.74,0,6.66,6.66,0,0,1,8.8,0,8.16,8.16,0,0,0,10.74,0c2.84-2.24,5.8-2.24,8.81,0a9,9,0,0,0,5.32,2l2.24-.35a10,10,0,0,0,3.07-1.67c3.56-2.77,6.62-1.55,8.2-.48l1.92-.44C156,214.22,155.84,214.13,155.73,214Z" fill="#a6a5a5"/><path d="M77.77,214.07a8.33,8.33,0,0,0-8.11-1.56q4.45,1.23,9,2.23A5.37,5.37,0,0,1,77.77,214.07Z" fill="#a6a5a5"/><path d="M175.29,208.1a8.27,8.27,0,0,0-10.74,0,6.69,6.69,0,0,1-8.81,0,8.13,8.13,0,0,0-10.71,0c-2.91,2.26-5.79,2.26-8.81,0-3.52-2.63-7.3-2.63-10.64,0a6.71,6.71,0,0,1-8.82,0,8.14,8.14,0,0,0-10.75,0,6.61,6.61,0,0,1-8.8,0,8.1,8.1,0,0,0-10.68,0,6.59,6.59,0,0,1-8.76,0,8.28,8.28,0,0,0-10.79,0,6.65,6.65,0,0,1-8.77,0,8.27,8.27,0,0,0-7.18-1.8q6.67,2.63,13.53,4.73a8.1,8.1,0,0,0,3.4-1.8,6.75,6.75,0,0,1,8.79,0,8.06,8.06,0,0,0,10.72,0,6.59,6.59,0,0,1,8.76,0,8.16,8.16,0,0,0,10.74,0,6.64,6.64,0,0,1,8.79,0,8.19,8.19,0,0,0,10.75,0c2.84-2.24,5.8-2.24,8.81,0,3.59,2.69,7.16,2.69,10.63,0a6.64,6.64,0,0,1,8.83,0,8.15,8.15,0,0,0,10.71,0,6.73,6.73,0,0,1,8.61-.19l1.72-.58A5.64,5.64,0,0,1,175.29,208.1Z" fill="#a6a5a5"/><path d="M184.11,202c-3.77,2.84-6.88,1.58-8.82,0a8.26,8.26,0,0,0-10.74,0,6.68,6.68,0,0,1-8.81,0A8.14,8.14,0,0,0,145,202c-2.91,2.26-5.79,2.26-8.81,0-3.52-2.64-7.29-2.64-10.64,0a6.71,6.71,0,0,1-8.82,0A8.14,8.14,0,0,0,106,202a6.61,6.61,0,0,1-8.8,0,8.1,8.1,0,0,0-10.68,0,6.58,6.58,0,0,1-8.76,0A8.29,8.29,0,0,0,67,202a6.63,6.63,0,0,1-8.76,0,8.23,8.23,0,0,0-10.76,0,7.17,7.17,0,0,1-3.08,1.53l2,.89a9.48,9.48,0,0,0,2-1.26,6.66,6.66,0,0,1,8.82,0,8.13,8.13,0,0,0,10.73,0,6.75,6.75,0,0,1,8.79,0,8.08,8.08,0,0,0,10.72,0,6.56,6.56,0,0,1,8.76,0,8.16,8.16,0,0,0,10.74,0,6.66,6.66,0,0,1,8.8,0,8.16,8.16,0,0,0,10.74,0c2.84-2.24,5.8-2.23,8.81,0,3.59,2.69,7.17,2.68,10.63,0a6.64,6.64,0,0,1,8.83,0,8.15,8.15,0,0,0,10.71,0,6.77,6.77,0,0,1,8.86,0c3.29,2.64,7.18,2.64,10.66,0,2.31-1.74,4.39-2.14,6.67-1.21.58-.27,1.18-.53,1.76-.81C191.14,199.84,188,199.05,184.11,202Z" fill="#a6a5a5"/><path d="M194.72,196.23c-2.33-1.69-6-3.52-10.61,0-3.77,2.85-6.88,1.59-8.82,0a8.26,8.26,0,0,0-10.74,0,6.69,6.69,0,0,1-8.81,0,8.13,8.13,0,0,0-10.71,0c-2.91,2.26-5.79,2.25-8.81,0-3.52-2.63-7.29-2.63-10.64,0a6.71,6.71,0,0,1-8.82,0,8.14,8.14,0,0,0-10.75,0,6.61,6.61,0,0,1-8.8,0,8.11,8.11,0,0,0-10.68,0,6.59,6.59,0,0,1-8.76,0,8.28,8.28,0,0,0-10.79,0,6.65,6.65,0,0,1-8.77,0,8.22,8.22,0,0,0-10.75,0,6.56,6.56,0,0,1-8.71,0,8.2,8.2,0,0,0-10-.54l1.5.83a6.66,6.66,0,0,1,7.58.85,8,8,0,0,0,10.63,0,6.65,6.65,0,0,1,8.82,0,8.12,8.12,0,0,0,10.73,0,6.75,6.75,0,0,1,8.79,0,8.06,8.06,0,0,0,10.72,0,6.58,6.58,0,0,1,8.76,0,8.16,8.16,0,0,0,10.74,0,6.66,6.66,0,0,1,8.8,0,8.19,8.19,0,0,0,10.74,0c2.84-2.25,5.8-2.24,8.81,0,3.59,2.69,7.17,2.69,10.63,0a6.64,6.64,0,0,1,8.83,0,8.15,8.15,0,0,0,10.71,0,6.79,6.79,0,0,1,8.86,0c3.29,2.65,7.18,2.65,10.66,0,3-2.29,5.65-2.28,8.83,0a10.33,10.33,0,0,0,3.55,1.74c.87-.44,1.75-.87,2.61-1.33A7.14,7.14,0,0,1,194.72,196.23Z" fill="#a6a5a5"/><path d="M203.62,190.28c-3,2.27-5.77,2.27-8.9,0-2.33-1.68-6-3.51-10.61,0-3.77,2.84-6.88,1.58-8.82,0a8.26,8.26,0,0,0-10.74,0,6.7,6.7,0,0,1-8.82,0,8.12,8.12,0,0,0-10.7,0c-2.91,2.26-5.79,2.26-8.81,0-3.52-2.64-7.3-2.63-10.64,0a6.7,6.7,0,0,1-8.82,0,8.15,8.15,0,0,0-10.75,0,6.61,6.61,0,0,1-8.8,0,8.09,8.09,0,0,0-10.68,0,6.58,6.58,0,0,1-8.76,0,8.29,8.29,0,0,0-10.79,0,6.65,6.65,0,0,1-8.77,0,8.22,8.22,0,0,0-10.75,0,6.55,6.55,0,0,1-8.71,0,8.2,8.2,0,0,0-10.74,0,6.68,6.68,0,0,1-6.07,1.44c.9.56,1.81,1.11,2.72,1.65A8.32,8.32,0,0,0,29,191.46a6.63,6.63,0,0,1,8.8,0,8,8,0,0,0,10.63,0,6.66,6.66,0,0,1,8.82,0,8.12,8.12,0,0,0,10.73,0,6.75,6.75,0,0,1,8.79,0,8.08,8.08,0,0,0,10.72,0,6.56,6.56,0,0,1,8.76,0,8.16,8.16,0,0,0,10.74,0,6.64,6.64,0,0,1,8.79,0,8.18,8.18,0,0,0,10.75,0c2.84-2.24,5.8-2.24,8.81,0,3.59,2.68,7.16,2.68,10.63,0a6.64,6.64,0,0,1,8.83,0,8.14,8.14,0,0,0,10.71,0,6.79,6.79,0,0,1,8.86,0c3.28,2.64,7.17,2.64,10.66,0,3-2.28,5.65-2.28,8.83,0,3.65,2.64,7.14,2.64,10.68,0,3-2.26,5.34-2,7.67-.71l1.41-.91C211.1,188.28,207.78,187.16,203.62,190.28Z" fill="#a6a5a5"/><path d="M217.63,186.69l-.86-.65-2.56-1.87c-2.56-1.77-6.08-3.36-10.59,0-3,2.26-5.77,2.26-8.9,0-2.33-1.69-6-3.52-10.61,0-3.77,2.85-6.88,1.59-8.82,0a8.26,8.26,0,0,0-10.74,0,6.69,6.69,0,0,1-8.81,0,8.13,8.13,0,0,0-10.71,0c-2.91,2.26-5.79,2.26-8.81,0-3.52-2.64-7.3-2.63-10.64,0a6.71,6.71,0,0,1-8.82,0,8.14,8.14,0,0,0-10.75,0,6.61,6.61,0,0,1-8.8,0,8.11,8.11,0,0,0-10.68,0,6.59,6.59,0,0,1-8.76,0,8.28,8.28,0,0,0-10.79,0,6.65,6.65,0,0,1-8.77,0,8.22,8.22,0,0,0-10.75,0,6.57,6.57,0,0,1-8.71,0,8.2,8.2,0,0,0-10.74,0,6.74,6.74,0,0,1-8.84,0,7.61,7.61,0,0,0-5.4-2,.51.51,0,0,0-.21.06v.08a8.44,8.44,0,0,0,.13,1.33.86.86,0,0,0,.22,0,6.07,6.07,0,0,1,4.27,1.63,8.24,8.24,0,0,0,10.8,0,6.62,6.62,0,0,1,8.8,0,8,8,0,0,0,10.63,0,6.65,6.65,0,0,1,8.82,0,8.12,8.12,0,0,0,10.73,0,6.75,6.75,0,0,1,8.79,0,8.06,8.06,0,0,0,10.72,0,6.58,6.58,0,0,1,8.76,0,8.16,8.16,0,0,0,10.74,0,6.66,6.66,0,0,1,8.79,0,8.17,8.17,0,0,0,10.75,0c2.84-2.24,5.8-2.24,8.81,0,3.59,2.69,7.16,2.69,10.63,0a6.64,6.64,0,0,1,8.83,0,8.15,8.15,0,0,0,10.71,0,6.79,6.79,0,0,1,8.86,0c3.29,2.64,7.18,2.65,10.66,0,3-2.29,5.65-2.28,8.83,0,3.65,2.64,7.14,2.64,10.68,0s6.07-1.9,8.83,0l2.52,1.85.75.57A7.15,7.15,0,0,0,217.63,186.69Z" fill="#a6a5a5"/><path d="M68.81,178.73a.74.74,0,0,1-.75-.75v-6.51a8.41,8.41,0,0,0-8.41-8.4H13.59a.75.75,0,0,1,0-1.5H59.65a9.92,9.92,0,0,1,9.91,9.9V178A.75.75,0,0,1,68.81,178.73Z" fill="#a6a5a5"/><path d="M40.43,162.66a.75.75,0,0,1-.75-.75v-3.86a8.41,8.41,0,0,0-8.4-8.4H14.2a.75.75,0,1,1,0-1.5H31.28a9.91,9.91,0,0,1,9.9,9.9v3.86A.74.74,0,0,1,40.43,162.66Z" fill="#a6a5a5"/><path d="M55.16,168H22.62a.75.75,0,0,1,0-1.5H55.16a.75.75,0,0,1,0,1.5Z" fill="#a6a5a5"/><path d="M30.06,158.7H13.79a.75.75,0,1,1,0-1.5H30.06a.75.75,0,1,1,0,1.5Z" fill="#a6a5a5"/><path d="M38.45,154H25.38a.75.75,0,1,1,0-1.5H38.45a.75.75,0,1,1,0,1.5Z" fill="#a6a5a5"/><path d="M34.54,172H13.79a.75.75,0,1,1,0-1.5H34.54a.75.75,0,0,1,0,1.5Z" fill="#a6a5a5"/><path d="M61.18,172H49.79a.75.75,0,1,1,0-1.5H61.18a.75.75,0,1,1,0,1.5Z" fill="#a6a5a5"/><path d="M163.47,180.12h0a.75.75,0,0,1-.75-.76l.07-8.13a9.9,9.9,0,0,1,9.9-9.82h.09l46.07.4a.75.75,0,0,1,0,1.5h0l-46.06-.4h-.08a8.42,8.42,0,0,0-8.4,8.33l-.07,8.14A.75.75,0,0,1,163.47,180.12Z" fill="#a6a5a5"/><path d="M192,162.67h0a.74.74,0,0,1-.74-.76l0-3.86a9.9,9.9,0,0,1,9.9-9.82h.09l17.08.15a.75.75,0,1,1,0,1.5h0l-17.09-.15h-.07a8.4,8.4,0,0,0-8.4,8.33l0,3.87A.75.75,0,0,1,192,162.67Z" fill="#a6a5a5"/><path d="M197.44,168h0l-20.57-.28a.75.75,0,0,1,0-1.5h0l20.57.28a.74.74,0,0,1,.74.76A.75.75,0,0,1,197.44,168Z" fill="#a6a5a5"/><path d="M218.67,158.94h0l-16.27-.14a.76.76,0,0,1-.75-.76.75.75,0,0,1,.75-.74h0l16.27.14a.73.73,0,0,1,.74.75A.75.75,0,0,1,218.67,158.94Z" fill="#a6a5a5"/><path d="M207.12,154.16h0L194.05,154a.75.75,0,0,1-.75-.75.76.76,0,0,1,.75-.75h0l13.07.12a.74.74,0,0,1,.74.75A.75.75,0,0,1,207.12,154.16Z" fill="#a6a5a5"/><path d="M218.56,172.26h0l-20.74-.18a.75.75,0,0,1,0-1.5h0l20.75.18a.75.75,0,0,1,.74.75A.76.76,0,0,1,218.56,172.26Z" fill="#a6a5a5"/><path d="M182.56,172h0l-11.38-.1a.75.75,0,1,1,0-1.5h0l11.39.1a.74.74,0,0,1,.74.75A.75.75,0,0,1,182.56,172Z" fill="#a6a5a5"/><circle cx="153.53" cy="94.29" r="0.64" fill="#a6a5a5"/><path d="M25.76,149.7a.79.79,0,0,1-.53-.22l-2.87-2.87a.77.77,0,0,1,0-1.07.75.75,0,0,1,1.06,0l2.87,2.87a.77.77,0,0,1,0,1.07A.79.79,0,0,1,25.76,149.7Z" fill="#a6a5a5"/><path d="M25.76,149.7a.79.79,0,0,1-.53-.22.77.77,0,0,1,0-1.07l2.87-2.87a.75.75,0,0,1,1.06,0,.77.77,0,0,1,0,1.07l-2.87,2.87A.79.79,0,0,1,25.76,149.7Z" fill="#a6a5a5"/><path d="M25.76,149.7A.75.75,0,0,1,25,149V145.1a.75.75,0,0,1,1.5,0V149A.76.76,0,0,1,25.76,149.7Z" fill="#a6a5a5"/><path d="M204.77,149.24a.74.74,0,0,1-.53-.22l-2.87-2.87a.75.75,0,0,1,1.06-1.06L205.3,148a.74.74,0,0,1,0,1.06A.73.73,0,0,1,204.77,149.24Z" fill="#a6a5a5"/><path d="M204.77,149.24a.74.74,0,0,1-.53-.22.75.75,0,0,1,0-1.06l2.87-2.87a.75.75,0,0,1,1.06,0,.74.74,0,0,1,0,1.06L205.3,149A.73.73,0,0,1,204.77,149.24Z" fill="#a6a5a5"/><path d="M204.77,149.24a.76.76,0,0,1-.75-.75v-3.85a.75.75,0,0,1,1.5,0v3.85A.75.75,0,0,1,204.77,149.24Z" fill="#a6a5a5"/><path d="M32.43,109.89a.24.24,0,0,1-.23-.22,2.29,2.29,0,0,0-2.28-2.29.23.23,0,0,1,0-.46,2.28,2.28,0,0,0,2.28-2.29.24.24,0,0,1,.23-.22h0a.22.22,0,0,1,.23.22,2.3,2.3,0,0,0,2.28,2.29.23.23,0,0,1,0,.46,2.29,2.29,0,0,0-2.28,2.29.22.22,0,0,1-.23.22Z" fill="#a6a5a5"/><path d="M177.46,104.94a.23.23,0,0,1-.23-.22,2.29,2.29,0,0,0-2.28-2.29.23.23,0,0,1,0-.46,2.28,2.28,0,0,0,2.28-2.29.22.22,0,0,1,.23-.22h0a.22.22,0,0,1,.23.22A2.3,2.3,0,0,0,180,102a.23.23,0,0,1,0,.46,2.29,2.29,0,0,0-2.28,2.29.22.22,0,0,1-.23.22Z" fill="#a6a5a5"/><path d="M85.6,96.39a.22.22,0,0,1-.23-.22,2.3,2.3,0,0,0-2.28-2.29.23.23,0,0,1,0-.46,2.29,2.29,0,0,0,2.28-2.29.22.22,0,0,1,.23-.22h0a.23.23,0,0,1,.23.22,2.29,2.29,0,0,0,2.28,2.29.23.23,0,0,1,0,.46,2.28,2.28,0,0,0-2.28,2.29.23.23,0,0,1-.23.22Z" fill="#a6a5a5"/><path d="M201.08,102.64a.15.15,0,0,1-.15-.15A1.55,1.55,0,0,0,199.4,101a.15.15,0,0,1-.15-.15.16.16,0,0,1,.15-.16,1.53,1.53,0,0,0,1.53-1.53.16.16,0,0,1,.15-.16h0a.16.16,0,0,1,.16.16,1.54,1.54,0,0,0,1.53,1.53.16.16,0,0,1,.15.16.15.15,0,0,1-.15.15,1.55,1.55,0,0,0-1.53,1.54A.16.16,0,0,1,201.08,102.64Z" fill="#a6a5a5"/><path d="M163.45,111.84a.16.16,0,0,1-.16-.15,1.54,1.54,0,0,0-1.53-1.54.15.15,0,0,1,0-.3,1.54,1.54,0,0,0,1.53-1.54.16.16,0,0,1,.16-.15h0a.15.15,0,0,1,.15.15,1.55,1.55,0,0,0,1.53,1.54.15.15,0,0,1,0,.3,1.55,1.55,0,0,0-1.53,1.54A.15.15,0,0,1,163.45,111.84Z" fill="#a6a5a5"/><path d="M48.14,101.81a.4.4,0,0,1-.39-.38A2.8,2.8,0,0,0,45,98.64a.38.38,0,0,1-.36-.38.38.38,0,0,1,.36-.38,2.78,2.78,0,0,0,2.78-2.79.38.38,0,0,1,.38-.38h0a.38.38,0,0,1,.38.38,2.8,2.8,0,0,0,2.78,2.79.38.38,0,0,1,.36.38.38.38,0,0,1-.36.38,2.8,2.8,0,0,0-2.78,2.79A.38.38,0,0,1,48.14,101.81Z" fill="#a6a5a5"/><path d="M161.62,92a.39.39,0,0,1-.39-.38,2.56,2.56,0,0,0-2.55-2.55.39.39,0,0,1,0-.77,2.55,2.55,0,0,0,2.55-2.55.38.38,0,0,1,.38-.38h0a.39.39,0,0,1,.38.38,2.57,2.57,0,0,0,2.55,2.55.39.39,0,0,1,0,.77A2.55,2.55,0,0,0,162,91.62a.38.38,0,0,1-.38.38Z" fill="#a6a5a5"/><path d="M65.36,100.37a1.51,1.51,0,0,1-2.13,2.13A1.51,1.51,0,0,1,65.36,100.37Z" fill="#a6a5a5"/><path d="M72.82,116.76a1.51,1.51,0,0,1-2.13,2.13A1.51,1.51,0,0,1,72.82,116.76Z" fill="#a6a5a5"/><path d="M132,169a14.87,14.87,0,0,1-6.65-1.42H112c-5.94,2.94-13.3.42-13.62.31l-.78-.3-.12-.05a.69.69,0,0,1-.25,0H83.65a.75.75,0,0,1,0-1.5H96.36a2.21,2.21,0,0,1,0-.68,7.77,7.77,0,0,1,.38-1.6v0a8.52,8.52,0,0,1,3.71-4.49,34.45,34.45,0,0,0,1.66-13.53c-.55-.16-.85-.27-.87-.28l-.49-.17-.25-13.18-6.7-3.17a28.63,28.63,0,0,0-6.46-.62h-.09a6,6,0,0,1-.84.09L83.79,142l2.42,2.23-6,22.93H77.51L81,146.2l-2.42-2L81.41,128a6.29,6.29,0,0,1-3.21-5.72c0-2.93,1.7-5.38,4-6l.41-2.55A14.85,14.85,0,0,1,80.27,112c-3.61-.65-4.4-4.72-4.3-6.83l.06-1.33,1.1.74c3.15,2.09,4.75,4,4.77,5.6a2.27,2.27,0,0,1-.25,1.06c.3.24.73.55,1.2.86l.7-4.44,6.61-4.52-1.91,9.82a6.72,6.72,0,0,1,1,0,8.37,8.37,0,0,1,5.93,3.72h6.09c-6.14-4.37-10.06-11-10.06-18.33a22.65,22.65,0,0,1,7.37-16.15V74.83a3.84,3.84,0,0,1,5.91-3.22l6.13,4A34.69,34.69,0,0,1,119,74.52a36.26,36.26,0,0,1,8.55,1.14l6.26-4a3.84,3.84,0,0,1,5.91,3.22V82.5c4.4,4.44,7,10.33,7,15.82,0,7.87-4.47,14.86-11.35,19.19a15.32,15.32,0,0,0,5.36-2.6c1-1.5,4.07-5.77,6.19-4.65,1.23.65,1.29,2.14,1.32,3.12,0,.19,0,.43,0,.61l.64-.32c1.63-.83,4.09-2.09,6.05-1.19a4.12,4.12,0,0,1,2.14,3c1.31,5.32-8.76,9.82-9.94,10.32a53,53,0,0,1-11.25,6.57l.06,4.31a10.66,10.66,0,0,1,8.6-4.1h.68l.06.69a12.44,12.44,0,0,1-.17,2.75,16.47,16.47,0,0,1,1.57-1.05,9.85,9.85,0,0,0,4.92-8.34l0-1.42,1.2.76a10.36,10.36,0,0,1,4.12,6.16,11.89,11.89,0,0,1-1.05,7.52,6.1,6.1,0,0,0,1.5-1.33l1-2.07.38,2.29c0,.24.91,5.9-2.38,10.05a10.64,10.64,0,0,1-5.93,3.66,8.3,8.3,0,0,0,2.91.4l2-.22L154,153.91c-.08.09-8.09,8.52-16.81,2.88a31.69,31.69,0,0,0,1.84,4.31,8.26,8.26,0,0,1,1.42,2.37v0a.14.14,0,0,1,0,.06,7.73,7.73,0,0,1,.47,1.85,1.73,1.73,0,0,1,0,.68h23.76a.75.75,0,0,1,0,1.5h-25l-.75.29A23,23,0,0,1,132,169Zm-34-4a5.58,5.58,0,0,0-.1.59.55.55,0,0,0,.35.59l.75.29s7.55,2.57,12.95-.52l.31-.18,3.06-1.48V164a.57.57,0,0,1,0-.18,1,1,0,0,1,0-.17v-.26q-.93.34-1.71.57a16.64,16.64,0,0,0-3,1.26C106.23,167.5,100.09,165.75,97.93,165Zm28,1.2c5.36,2.69,12.44.29,12.51.26l.14-.05a.73.73,0,0,1,.63-.34h.15a.6.6,0,0,0,.17-.48,7.34,7.34,0,0,0-.17-.84c-2.21.79-8.72,2.76-13.06.43a16.64,16.64,0,0,0-3-1.26,9.93,9.93,0,0,1-1.16-.43h0v.19a.57.57,0,0,1,0,.13.76.76,0,0,1,0,.15v.34l3.32,1.63h0l0,0,.31.17A.53.53,0,0,1,125.9,166.21ZM115,166.08h7.28l-1.73-.85v-.67l-3.82,0v.7Zm-16.59-2.49c2,.67,7.66,2.29,11.39.28.38-.21.77-.4,1.15-.57a8.05,8.05,0,0,0-2.65-2.67,6.14,6.14,0,0,1-.63-.34,6.92,6.92,0,0,0-9.26,3.3Zm27.88-.07.68.35c3.75,2,9.74.21,11.81-.51a7,7,0,0,0-8.89-3.2,10.33,10.33,0,0,1-1.38.74A6.36,6.36,0,0,0,126.3,163.52Zm-46.07-20,2.41,2-3,17.89,4.9-18.82-2.38-2.18,2.72-14.09H83.34l-.48,0ZM116.74,163l3.85,0,0-3.74a.13.13,0,0,1,0-.06v-3.58a2,2,0,1,0-4,0Zm5.36-1.17c.23.09.42.17.58.25a9.49,9.49,0,0,0,1,.37c.41.13.83.27,1.24.43a8.17,8.17,0,0,1,.7-1.23,5.56,5.56,0,0,1-3.51-.75Zm-10.54-.34a11,11,0,0,1,.81,1.2l.74-.24c.61-.18,1.32-.42,2.11-.72v-1.11A5.77,5.77,0,0,1,111.56,161.53ZM122.13,159c1.7,1.85,4.18,1.21,5.71.53a8.9,8.9,0,0,1,1.33-.7l.05,0a.73.73,0,0,1,.34-.12,8.38,8.38,0,0,1,6.9.35,38.89,38.89,0,0,1-2.74-12.94,43.44,43.44,0,0,1-4.32,1.1,12.74,12.74,0,0,1-8.31,6,3.49,3.49,0,0,1,1,2.48V159Zm-13.18.25c1.26.61,4.22,1.68,6.24-.56l0-3a3.45,3.45,0,0,1,1-2.45,13.1,13.1,0,0,1-8.59-6.17c-1.57-.3-2.91-.62-3.94-.89a36.39,36.39,0,0,1-1.35,12.28,8.62,8.62,0,0,1,5.89.41l.18.08,0,0C108.58,159.07,108.77,159.16,109,159.27Zm27.53-4.91c6.41,5.53,12.58,1.8,15.18-.31a20.2,20.2,0,0,1-4.5-1.41l-2.71-1.23,3-.2c3.51-.24,6.14-1.43,7.82-3.55a11.66,11.66,0,0,0,2.18-7.3,30.74,30.74,0,0,1-3.3,2.25l-2.79,1.67,1.78-2.73c2.15-3.29,2.94-6.34,2.36-9.08a8.81,8.81,0,0,0-2.43-4.35,11.33,11.33,0,0,1-5.52,8.13,15.37,15.37,0,0,0-3.71,3c-.05.06-.1.13-.16.19l0,0a9,9,0,0,0-1.42,2.29.76.76,0,0,1-1,.4.75.75,0,0,1-.39-1,10.74,10.74,0,0,1,1.82-2.87,7.54,7.54,0,0,0,1.2-4.25A9.27,9.27,0,0,0,136,139.4l.08,5.88-.5.18-.41.15A38.08,38.08,0,0,0,136.48,154.36Zm-26.85-6.93a11.27,11.27,0,0,0,8.92,4.54,11.12,11.12,0,0,0,8.8-4.4A57.31,57.31,0,0,1,109.63,147.43Zm-7.41-3.22c2.85.9,17.74,5.11,32.38,0l-.16-12.15c-.33-7.08-2.52-11.07-3.34-12.34A31.4,31.4,0,0,1,119,122.13a31,31,0,0,1-14.75-3.65c.32,9.5-1.45,12.57-2.25,13.47Zm30.5-24.7a26.7,26.7,0,0,1,3.14,11.25,53.36,53.36,0,0,0,9.74-5.63,15.77,15.77,0,0,1-4.54-8.58A17.49,17.49,0,0,1,132.72,119.51Zm-38.23,8.1,6.56,3.11c.58-.85,2-3.86,1.68-12.57h-7.1C95.82,120.11,96.09,124.89,94.49,127.61Zm-4.39-.7a26.6,26.6,0,0,1,2.83.33c1.7-2.15,1.42-7.48,1.14-9.59a7,7,0,0,0-4.95-3.23,4.93,4.93,0,0,0-1.16,0l-.24,1.22a.75.75,0,0,1,.16.15,4.17,4.17,0,0,0,.84.84,6.49,6.49,0,0,1,1,.62,7.23,7.23,0,0,0,1.21.46.74.74,0,0,1,.52.92.9.9,0,0,1-.12.24,5.7,5.7,0,0,1,1.12,3.33A6.17,6.17,0,0,1,90.1,126.91Zm-4.3,0h.54A5.06,5.06,0,0,0,91,122.23a4.78,4.78,0,0,0-1.93-3.62,7.2,7.2,0,0,1-1.18-.7,3.78,3.78,0,0,0-1.54-.35h-3c-2,0-3.64,2.09-3.64,4.67a4.63,4.63,0,0,0,2.74,4.53l.08,0a2.81,2.81,0,0,0,.82.12H85.8Zm56.56-11.68c.12,1,.94,6.12,4.56,9.06,3.06-1.36,9.59-5,8.75-8.45a2.69,2.69,0,0,0-1.3-2c-1.3-.6-3.46.5-4.75,1.16l-.78.39a1.43,1.43,0,0,1-1.39,0c-.63-.39-.66-1.16-.69-2s-.09-1.63-.52-1.85S143.89,113.05,142.36,115.22ZM98.61,84.31a20.81,20.81,0,0,0-5.87,14c0,12.3,11.78,22.31,26.25,22.31a30,30,0,0,0,11.16-2.12l-.35-.43h1.39c8.35-3.74,14.05-11.19,14.05-19.75a21.34,21.34,0,0,0-5.53-13.62v2l-1.08-.52a7.93,7.93,0,0,1-3.13-2.72.34.34,0,0,1-.12-.12c-2-2.48-5.8-3.48-6.28-3.6-1.55.17-3.5-1.09-3.9-1.36l-.94-.64,1.54-1A34.25,34.25,0,0,0,119,76a33.48,33.48,0,0,0-6.58.7l1.65,1.07-.94.64c-.4.27-2.35,1.53-3.9,1.36-.49.12-4.24,1.13-6.28,3.6a.34.34,0,0,1-.12.12,7.93,7.93,0,0,1-3.13,2.72l-1.08.52ZM83.73,116.06h2.39l.45-2.34v0l1.41-7.3-3.06,2.09Zm-6.17-9.39c.21,1.39.86,3.31,2.79,3.76a1,1,0,0,0,.05-.33C80.37,109.67,80,108.54,77.56,106.67ZM100.11,82.5v1.72a4.54,4.54,0,0,0,1.43-1.5V77.49a2.3,2.3,0,0,1,3.55-1.93l4.22,2.73a3.87,3.87,0,0,0,2-.52l-7.55-4.9a2.33,2.33,0,0,0-3.6,2V82.5Zm36.66.22a4.68,4.68,0,0,0,1.44,1.5V74.83a2.33,2.33,0,0,0-3.6-2l-7.55,4.9a3.84,3.84,0,0,0,1.94.52l4.22-2.73a2.3,2.3,0,0,1,3.55,1.93ZM131,78.81a14.54,14.54,0,0,1,4.3,2.38v-3.7a.79.79,0,0,0-.41-.7.77.77,0,0,0-.82,0Zm-27.12-2.12a.8.8,0,0,0-.39.1.79.79,0,0,0-.42.7v3.7a14.7,14.7,0,0,1,4.31-2.38l-3.07-2A.76.76,0,0,0,103.85,76.69ZM73.2,167.58H68a.76.76,0,0,1-.75-.76.74.74,0,0,1,.75-.74H73.2a.75.75,0,1,1,0,1.5Zm43.13-27.32a4.18,4.18,0,0,1-3.66-2.17,4,4,0,0,1-2.68-7,4.2,4.2,0,0,1-.16-1.18,4.44,4.44,0,0,1,4.44-4.43,4.38,4.38,0,0,1,3,1.16,4,4,0,0,1,2.35-.75,4.09,4.09,0,0,1,3.22,1.58,4.86,4.86,0,0,1,6.21,4.69,4.88,4.88,0,0,1-5.29,4.87,3.85,3.85,0,0,1-3.93,1.35A4.17,4.17,0,0,1,116.33,140.26Zm-2.73-3.85.22.6a2.67,2.67,0,0,0,5,.13l.31-.73.71.34a2.3,2.3,0,0,0,3-.92l.26-.48.54.11a3.7,3.7,0,0,0,.66.07,3.39,3.39,0,1,0-1.36-6.49l-.62.28-.34-.59a2.61,2.61,0,0,0-2.27-1.36,2.57,2.57,0,0,0-1.87.81l-.61.63-.53-.7a2.94,2.94,0,0,0-5,2.95l.26.61-.57.34a2.46,2.46,0,0,0-1.21,2.13,2.43,2.43,0,0,0,2.42,2.45,2.83,2.83,0,0,0,.5-.05Zm5.77-17.84c-11.24,0-20.38-7.68-20.38-17.13a14.76,14.76,0,0,1,1.68-6.82.72.72,0,0,1,.15-.27,19.59,19.59,0,0,1,11.81-9.09.55.55,0,0,1,.18-.06h.06a23.79,23.79,0,0,1,6.5-.89A22.78,22.78,0,0,1,132,88a1,1,0,0,1,.13.09c4.62,3.14,7.58,8,7.58,13.33A15,15,0,0,1,137,110a.9.9,0,0,1-.14.2C133.3,115.22,126.79,118.57,119.37,118.57Zm-15.29-8a20.32,20.32,0,0,0,15.29,6.47c6.95,0,13-3.12,16.31-7.76.87-2,.51-5.32.24-7A5.21,5.21,0,0,1,134,103l-.92.07.11-.91c.21-1.67-.74-4.29-1.58-6.12A9,9,0,0,1,130,98.77l-.76.82-.47-1a11.6,11.6,0,0,0-10.9-7.13h-.08a25.89,25.89,0,0,0,4.12,2.71l2,1-2.15.43a18,18,0,0,1-13.07-2.4,5.51,5.51,0,0,0-1.16,6.62l1.18,2.08-2.15-1A10.4,10.4,0,0,1,104,99.09C103,100.51,100.79,104.6,104.08,110.6Zm33.18-9.37a24.81,24.81,0,0,1,.45,3.91,13.09,13.09,0,0,0,.54-3.7,11.78,11.78,0,0,0-.07-1.34A7.16,7.16,0,0,1,137.26,101.23Zm-35.73-4.91a13.08,13.08,0,0,0-.67,8.2A10.89,10.89,0,0,1,103,98C102.39,97.41,101.9,96.8,101.53,96.32Zm30.68-2.48c.51,1,2.31,4.55,2.48,7.37a5.71,5.71,0,0,0,3-3.51,15.35,15.35,0,0,0-5.18-7.47A16.93,16.93,0,0,1,132.21,93.84Zm-29.93,1a19.88,19.88,0,0,0,3.22,3.58,6.91,6.91,0,0,1,1.9-6.06,17.36,17.36,0,0,1-1.84-1.53A15.82,15.82,0,0,0,102.28,94.8ZM117.85,90a13,13,0,0,1,11.71,6.83A13.41,13.41,0,0,0,131,89.11a21.31,21.31,0,0,0-11.6-3.31,22.46,22.46,0,0,0-5.5.67,9.79,9.79,0,0,0,2.39,3.59A11.47,11.47,0,0,1,117.85,90Zm-8.69,1.71a16.86,16.86,0,0,0,10.15,2.71c-2.25-1.44-5.78-4.13-6.88-7.49a20,20,0,0,0-5.69,2.94,18,18,0,0,0,2.13,1.65A.7.7,0,0,1,109.16,91.67Z" fill="#a6a5a5"/><path d="M112.75,105.68c-.11,1.49-1,2.64-2,2.57s-1.71-1.34-1.6-2.83,1-2.63,2-2.56S112.86,104.19,112.75,105.68Z" fill="#a6a5a5"/><path d="M129.59,105.68c-.11,1.49-1,2.64-2,2.57s-1.71-1.34-1.61-2.83,1-2.63,2-2.56S129.69,104.19,129.59,105.68Z" fill="#a6a5a5"/><path d="M190.65,119.55a.22.22,0,0,1-.22-.22,2.31,2.31,0,0,0-2.29-2.29.23.23,0,0,1,0-.46,2.31,2.31,0,0,0,2.29-2.29.24.24,0,0,1,.22-.23h0a.23.23,0,0,1,.23.23,2.3,2.3,0,0,0,2.28,2.29.23.23,0,0,1,0,.46,2.29,2.29,0,0,0-2.28,2.29.22.22,0,0,1-.23.22Z" fill="#a6a5a5"/><path d="M55.25,118.27A.23.23,0,0,1,55,118a2.29,2.29,0,0,0-2.28-2.28.24.24,0,0,1-.22-.23.22.22,0,0,1,.22-.23A2.29,2.29,0,0,0,55,113a.23.23,0,0,1,.23-.23h0a.24.24,0,0,1,.23.23,2.29,2.29,0,0,0,2.28,2.29.22.22,0,0,1,.22.23.24.24,0,0,1-.22.23A2.27,2.27,0,0,0,55.48,118a.23.23,0,0,1-.23.23Z" fill="#a6a5a5"/><path d="M165,133.54a.74.74,0,0,1-.74-.64.75.75,0,0,1,.63-.85s4.42-.68,4.42-3.42a.75.75,0,0,1,1.5,0c0,4-5.47,4.87-5.7,4.9Z" fill="#a6a5a5"/><path d="M175.16,133.54h-.1c-.24,0-5.71-.86-5.71-4.9a.75.75,0,0,1,1.5,0c0,2.74,4.38,3.41,4.42,3.42a.75.75,0,0,1-.11,1.49Z" fill="#a6a5a5"/><path d="M164,138.73a.75.75,0,0,1-.11-1.49c.06,0,5.4-.83,5.4-4.25a.75.75,0,0,1,1.5,0c0,4.72-6.41,5.69-6.68,5.73Z" fill="#a6a5a5"/><path d="M176.15,138.73H176c-.27,0-6.71-1-6.71-5.73a.75.75,0,0,1,1.5,0c0,3.43,5.37,4.24,5.42,4.25a.75.75,0,0,1-.1,1.49Z" fill="#a6a5a5"/><path d="M164,144.37a.75.75,0,0,1-.11-1.5c.06,0,5.4-.82,5.4-4.24a.75.75,0,0,1,1.5,0c0,4.71-6.41,5.69-6.68,5.73Z" fill="#a6a5a5"/><path d="M176.15,144.37H176c-.27,0-6.71-1-6.71-5.73a.75.75,0,0,1,1.5,0c0,3.43,5.37,4.24,5.42,4.24a.75.75,0,0,1,.64.85A.74.74,0,0,1,176.15,144.37Z" fill="#a6a5a5"/><path d="M165,149.57a.75.75,0,0,1-.11-1.5s4.48-.69,4.48-3.49a.75.75,0,1,1,1.5,0c0,4.1-5.53,4.94-5.77,5Z" fill="#a6a5a5"/><path d="M175.23,149.57h-.11c-.24,0-5.79-.88-5.79-5a.75.75,0,0,1,1.5,0c0,2.8,4.46,3.49,4.5,3.49a.75.75,0,0,1-.1,1.5Z" fill="#a6a5a5"/><path d="M165,155.43a.74.74,0,0,1-.74-.64.75.75,0,0,1,.63-.85s4.48-.69,4.48-3.49a.75.75,0,0,1,1.5,0c0,4.1-5.53,4.94-5.77,5Z" fill="#a6a5a5"/><path d="M175.23,155.43h-.11c-.24,0-5.79-.88-5.79-5a.75.75,0,0,1,1.5,0c0,2.82,4.46,3.49,4.5,3.49a.75.75,0,0,1-.1,1.49Z" fill="#a6a5a5"/><path d="M170.08,163.13a.75.75,0,0,1-.75-.75V129.12a.75.75,0,0,1,1.5,0v33.26A.76.76,0,0,1,170.08,163.13Z" fill="#a6a5a5"/><path d="M179.79,139.44a.75.75,0,0,1-.11-1.49s4.42-.68,4.42-3.42a.75.75,0,0,1,1.5,0c0,4-5.47,4.87-5.71,4.9Z" fill="#a6a5a5"/><path d="M189.91,139.44h-.11c-.23,0-5.7-.86-5.7-4.9a.75.75,0,0,1,1.5,0c0,2.74,4.37,3.41,4.41,3.42a.75.75,0,0,1-.1,1.49Z" fill="#a6a5a5"/><path d="M178.77,144.62a.75.75,0,0,1-.1-1.49c.05,0,5.39-.82,5.39-4.24a.75.75,0,0,1,1.5,0c0,4.71-6.41,5.69-6.68,5.73Z" fill="#a6a5a5"/><path d="M190.89,144.62h-.1c-.28,0-6.72-1-6.72-5.73a.75.75,0,0,1,1.5,0c0,3.43,5.37,4.23,5.43,4.24a.75.75,0,0,1,.63.85A.74.74,0,0,1,190.89,144.62Z" fill="#a6a5a5"/><path d="M178.77,150.26a.75.75,0,0,1-.1-1.49c.05,0,5.39-.82,5.39-4.24a.75.75,0,0,1,1.5,0c0,4.71-6.41,5.69-6.68,5.73Z" fill="#a6a5a5"/><path d="M190.89,150.26h-.1c-.28,0-6.72-1-6.72-5.73a.75.75,0,0,1,1.5,0c0,3.43,5.37,4.23,5.43,4.24a.75.75,0,0,1-.11,1.49Z" fill="#a6a5a5"/><path d="M179.69,155.46a.74.74,0,0,1-.74-.64.75.75,0,0,1,.63-.85s4.48-.69,4.48-3.49a.75.75,0,1,1,1.5,0c0,4.1-5.53,4.94-5.76,5Z" fill="#a6a5a5"/><path d="M190,155.46h-.11c-.23,0-5.79-.88-5.79-5a.75.75,0,1,1,1.5,0c0,2.8,4.46,3.48,4.51,3.49a.75.75,0,0,1-.11,1.49Z" fill="#a6a5a5"/><path d="M184.82,162.47a.76.76,0,0,1-.75-.75V135a.75.75,0,0,1,1.5,0v26.7A.76.76,0,0,1,184.82,162.47Z" fill="#a6a5a5"/><path d="M67.9,133.54h-.1c-.24,0-5.71-.86-5.71-4.9a.75.75,0,0,1,1.5,0c0,2.74,4.38,3.41,4.42,3.42a.75.75,0,0,1-.11,1.49Z" fill="#a6a5a5"/><path d="M57.78,133.54a.75.75,0,0,1-.1-1.49s4.41-.68,4.41-3.42a.75.75,0,0,1,1.5,0c0,4-5.47,4.87-5.7,4.9Z" fill="#a6a5a5"/><path d="M68.92,138.73h-.11c-.27,0-6.68-1-6.68-5.73a.75.75,0,0,1,1.5,0c0,3.43,5.34,4.24,5.39,4.25a.74.74,0,0,1,.64.84A.76.76,0,0,1,68.92,138.73Z" fill="#a6a5a5"/><path d="M56.8,138.73a.74.74,0,0,1-.74-.65.73.73,0,0,1,.63-.84c.06,0,5.43-.83,5.43-4.25a.75.75,0,0,1,1.5,0c0,4.72-6.44,5.69-6.72,5.73Z" fill="#a6a5a5"/><path d="M68.92,144.37h-.11c-.27,0-6.68-1-6.68-5.73a.75.75,0,0,1,1.5,0c0,3.43,5.34,4.24,5.39,4.24a.75.75,0,0,1-.1,1.5Z" fill="#a6a5a5"/><path d="M56.8,144.37a.75.75,0,0,1-.11-1.5c.06,0,5.43-.82,5.43-4.24a.75.75,0,0,1,1.5,0c0,4.72-6.44,5.69-6.72,5.73Z" fill="#a6a5a5"/><path d="M68,149.57h-.11c-.23,0-5.76-.88-5.76-5a.75.75,0,0,1,1.5,0c0,2.8,4.43,3.49,4.48,3.49a.75.75,0,0,1-.11,1.5Z" fill="#a6a5a5"/><path d="M57.72,149.57a.75.75,0,0,1-.11-1.5s4.51-.69,4.51-3.49a.75.75,0,0,1,1.5,0c0,4.1-5.56,4.94-5.79,5Z" fill="#a6a5a5"/><path d="M68,155.43h-.11c-.23,0-5.76-.88-5.76-5a.75.75,0,0,1,1.5,0c0,2.82,4.43,3.49,4.48,3.49a.75.75,0,0,1-.11,1.49Z" fill="#a6a5a5"/><path d="M57.72,155.43a.75.75,0,0,1-.11-1.49s4.51-.69,4.51-3.49a.75.75,0,0,1,1.5,0c0,4.1-5.56,4.94-5.79,5Z" fill="#a6a5a5"/><path d="M62.87,163.13a.76.76,0,0,1-.75-.75V129.12a.75.75,0,0,1,1.5,0v33.26A.76.76,0,0,1,62.87,163.13Z" fill="#a6a5a5"/><path d="M53.16,139.44h-.11c-.23,0-5.7-.86-5.7-4.9a.75.75,0,0,1,1.5,0c0,2.74,4.37,3.41,4.42,3.42a.75.75,0,0,1-.11,1.49Z" fill="#a6a5a5"/><path d="M43,139.44a.75.75,0,0,1-.11-1.49s4.42-.68,4.42-3.42a.75.75,0,0,1,1.5,0c0,4-5.47,4.87-5.7,4.9Z" fill="#a6a5a5"/><path d="M54.17,144.62h-.1c-.28,0-6.68-1-6.68-5.73a.75.75,0,0,1,1.5,0c0,3.43,5.33,4.23,5.39,4.24a.75.75,0,0,1,.63.85A.74.74,0,0,1,54.17,144.62Z" fill="#a6a5a5"/><path d="M42.05,144.62a.75.75,0,0,1-.1-1.49s5.43-.83,5.43-4.24a.75.75,0,0,1,1.5,0c0,4.71-6.45,5.69-6.72,5.73Z" fill="#a6a5a5"/><path d="M54.17,150.26h-.1c-.28,0-6.68-1-6.68-5.73a.75.75,0,0,1,1.5,0c0,3.43,5.33,4.23,5.39,4.24a.75.75,0,0,1-.11,1.49Z" fill="#a6a5a5"/><path d="M42.05,150.26a.75.75,0,0,1-.1-1.49s5.43-.83,5.43-4.24a.75.75,0,0,1,1.5,0c0,4.71-6.45,5.69-6.72,5.73Z" fill="#a6a5a5"/><path d="M53.26,155.46h-.11c-.24,0-5.76-.88-5.76-5a.75.75,0,0,1,1.5,0c0,2.8,4.43,3.48,4.47,3.49a.75.75,0,0,1-.1,1.49Z" fill="#a6a5a5"/><path d="M43,155.46a.75.75,0,0,1-.1-1.49s4.51-.69,4.51-3.49a.75.75,0,0,1,1.5,0c0,4.1-5.56,4.94-5.8,5Z" fill="#a6a5a5"/><path d="M48.13,162.47a.75.75,0,0,1-.75-.75V135a.75.75,0,0,1,1.5,0v26.7A.76.76,0,0,1,48.13,162.47Z" fill="#a6a5a5"/><path d="M195.21,101.68h-5.9a.75.75,0,0,1,0-1.5h5.9a.75.75,0,0,1,0,1.5Z" fill="url(#a)"/><path d="M152.58,53.93a.76.76,0,0,1-.75-.75,3.19,3.19,0,0,0-5.91-1.67.75.75,0,1,1-1.28-.79,4.69,4.69,0,0,1,8.69,2.46A.76.76,0,0,1,152.58,53.93Z" fill="url(#a)"/><path d="M152.63,53.93a.76.76,0,0,1-.75-.75,4.69,4.69,0,0,1,8.75-2.36.76.76,0,0,1-.28,1,.75.75,0,0,1-1-.28,3.19,3.19,0,0,0-6,1.61A.76.76,0,0,1,152.63,53.93Z" fill="url(#a)"/><path d="M207.59,126.14a.75.75,0,0,1-.75-.75,3.19,3.19,0,0,0-5.91-1.66.75.75,0,0,1-1.27-.79,4.68,4.68,0,0,1,8.68,2.45A.74.74,0,0,1,207.59,126.14Z" fill="url(#a)"/><path d="M207.64,126.14a.75.75,0,0,1-.75-.75,4.69,4.69,0,0,1,8.75-2.35.74.74,0,0,1-.27,1,.75.75,0,0,1-1-.27,3.19,3.19,0,0,0-6,1.6A.74.74,0,0,1,207.64,126.14Z" fill="url(#a)"/><circle cx="185.2" cy="100.9" r="0.64" fill="url(#a)"/><path d="M29.41,125a.75.75,0,0,1-.75-.75,3.19,3.19,0,0,0-5.91-1.67.75.75,0,1,1-1.28-.78,4.69,4.69,0,0,1,8.69,2.45A.76.76,0,0,1,29.41,125Z" fill="url(#a)"/><path d="M29.46,125a.75.75,0,0,1-.75-.75,4.69,4.69,0,0,1,8.74-2.36.75.75,0,1,1-1.29.76,3.19,3.19,0,0,0-5.95,1.6A.76.76,0,0,1,29.46,125Z" fill="url(#a)"/><path d="M87.78,72.78h-5a.75.75,0,1,1,0-1.5h5a.75.75,0,0,1,0,1.5Z" fill="url(#a)"/><path d="M87.07,77.41H77.45a.75.75,0,0,1,0-1.5h9.62a.75.75,0,0,1,0,1.5Z" fill="url(#a)"/><path d="M81.73,82H72.11a.75.75,0,0,1,0-1.5h9.62a.75.75,0,0,1,0,1.5Z" fill="url(#a)"/><path d="M71.76,86.67h-5a.75.75,0,0,1,0-1.5h5a.75.75,0,0,1,0,1.5Z" fill="url(#a)"/><path d="M117.34,49.63H115.2a.75.75,0,0,1,0-1.5h2.14a.75.75,0,0,1,0,1.5Z" fill="url(#a)"/><path d="M115.56,54.26h-5.34a.75.75,0,0,1,0-1.5h5.34a.75.75,0,0,1,0,1.5Z" fill="url(#a)"/><path d="M113.78,58.89h-8.55a.75.75,0,0,1,0-1.5h8.55a.75.75,0,0,1,0,1.5Z" fill="url(#a)"/><path d="M114.49,63.52H100.25a.75.75,0,0,1,0-1.5h14.24a.75.75,0,0,1,0,1.5Z" fill="url(#a)"/><path d="M103.81,68.15H95.26a.75.75,0,0,1,0-1.5h8.55a.75.75,0,0,1,0,1.5Z" fill="url(#a)"/><path d="M180.56,93.08a.73.73,0,0,1-.53-.22L151.11,64a1.86,1.86,0,0,0-2.64,0l-5.15,5.15A.75.75,0,0,1,142.26,68l5.15-5.15a3.36,3.36,0,0,1,4.76,0L181.09,91.8a.75.75,0,0,1,0,1.06A.74.74,0,0,1,180.56,93.08Z" fill="url(#a)"/><path d="M90.36,67.79a.74.74,0,0,1-.53-.22.75.75,0,0,1,0-1.06l24.46-24.46a3.37,3.37,0,0,1,4.76,0l10.66,10.67A4.46,4.46,0,0,0,132.83,54,5.86,5.86,0,0,1,137,55.74l9.17,9.17a.74.74,0,0,1,0,1.06.75.75,0,0,1-1.06,0L136,56.8a4.39,4.39,0,0,0-3.12-1.29,5.9,5.9,0,0,1-4.18-1.73L118,43.11a1.88,1.88,0,0,0-2.64,0L90.89,67.57A.71.71,0,0,1,90.36,67.79Z" fill="url(#a)"/><path d="M58.47,89.43a.74.74,0,0,1-.53-.22.75.75,0,0,1,0-1.06l24.6-24.54a3.37,3.37,0,0,1,4.76,0l8.83,8.83a.75.75,0,0,1-1.06,1.06l-8.83-8.83a1.88,1.88,0,0,0-2.64,0L59,89.21A.73.73,0,0,1,58.47,89.43Z" fill="url(#a)"/><path d="M151.55,70.46h-3.77a.75.75,0,0,1,0-1.5h3.77a.75.75,0,0,1,0,1.5Z" fill="url(#a)"/><path d="M151.55,74.8h-7a.75.75,0,0,1,0-1.5h7a.75.75,0,0,1,0,1.5Z" fill="url(#a)"/><path d="M193.18,80.7H176.29a.75.75,0,0,1,0-1.5h15.37a6.41,6.41,0,0,0-2.2-4.82c-3-2.41-8.2-1.27-8.25-1.26l-.46.11-.29-.37c-3.23-4-6.49-6-9.66-6.12A7.85,7.85,0,0,0,165.19,69a.75.75,0,0,1-1.11-1,9.21,9.21,0,0,1,6.76-2.71c3.54.11,7.06,2.23,10.49,6.33,1.47-.25,6-.79,9.06,1.63,1.85,1.48,2.79,3.75,2.79,6.75Z" fill="url(#a)"/><path d="M60.57,80.7H39.44V80c0-3,.94-5.27,2.79-6.75,3.05-2.42,7.59-1.88,9.06-1.63,3.43-4.1,7-6.22,10.49-6.33A9.46,9.46,0,0,1,68.54,68a.76.76,0,0,1,0,1.06A.75.75,0,0,1,67.44,69h0A8,8,0,0,0,62,66.74H61.8c-3.17.11-6.41,2.17-9.64,6.12l-.29.37-.46-.11S46.19,72,43.16,74.38A6.41,6.41,0,0,0,41,79.2H60.57a.75.75,0,1,1,0,1.5Z" fill="url(#a)"/><path d="M140.88,43.06H130.7a.75.75,0,0,1,0-1.5h8.66a5.33,5.33,0,0,0-1.84-4c-2.56-2-7-1.07-7-1.06l-.45.1-.3-.36c-2.75-3.38-5.52-5.14-8.21-5.22A6.71,6.71,0,0,0,116.82,33a.76.76,0,0,1-1.06,0,.75.75,0,0,1-.05-1.06,8.2,8.2,0,0,1,5.89-2.36c3.05.09,6.1,1.92,9.05,5.43,1.33-.23,5.19-.64,7.8,1.43a7.12,7.12,0,0,1,2.43,5.88Z" fill="url(#a)"/><path d="M103.44,43.06H91.74v-.75a7.12,7.12,0,0,1,2.43-5.88c2.61-2.07,6.47-1.66,7.8-1.43,3-3.51,6-5.34,9-5.43a8.05,8.05,0,0,1,5.89,2.36.75.75,0,0,1,0,1.06.76.76,0,0,1-1.06,0A6.62,6.62,0,0,0,111,31.07c-2.69.09-5.44,1.85-8.19,5.22l-.3.36-.45-.1s-4.44-1-7,1.06a5.36,5.36,0,0,0-1.84,4h10.18a.75.75,0,0,1,0,1.5Z" fill="url(#a)"/><path d="M115.18,231.59c-37.45,0-62.06-9.52-62.42-9.66a207.22,207.22,0,0,1-49-24A9,9,0,0,1,0,190.61V174.1c0-32.84,11.08-65.94,11.19-66.27A186.13,186.13,0,0,1,112.76.73a9,9,0,0,1,7.11,0A186.17,186.17,0,0,1,221.48,107.94c.1.26,11.14,28.4,11.14,66.16v16.51a9,9,0,0,1-3.87,7.38c-17.25,11.49-33.5,19.42-49.69,24.25A223.78,223.78,0,0,1,115.18,231.59ZM116.31,1.5a7.4,7.4,0,0,0-3,.61A184.62,184.62,0,0,0,12.6,108.32c-.1.32-11.1,33.19-11.1,65.78v16.51a7.5,7.5,0,0,0,3.08,6.08,205.6,205.6,0,0,0,48.69,23.83c.58.22,55,21.25,125.36.28l.21.72-.21-.72c16.05-4.78,32.17-12.65,49.28-24.05a7.49,7.49,0,0,0,3.21-6.14V174.1c0-37.47-10.94-65.35-11.05-65.62A184.58,184.58,0,0,0,119.28,2.11,7.48,7.48,0,0,0,116.31,1.5Z" fill="url(#a)"/><path d="M120,219.81h-3.67A183.76,183.76,0,0,1,16.16,188.94a8.15,8.15,0,0,1-3.35-6.57V167.69a165.78,165.78,0,0,1,2.61-31.77.75.75,0,0,1,.87-.61.76.76,0,0,1,.6.87,164.57,164.57,0,0,0-2.58,31.5v14.69A6.63,6.63,0,0,0,17,187.71a182.16,182.16,0,0,0,99.3,30.6h4.17a182.53,182.53,0,0,0,95-30.55,6.61,6.61,0,0,0,2.83-5.39V167.69A164.61,164.61,0,0,0,215.87,137a.75.75,0,1,1,1.47-.26,165.88,165.88,0,0,1,2.47,31v14.67a8.1,8.1,0,0,1-3.48,6.63,184.12,184.12,0,0,1-95.81,30.81ZM24,108.36a.86.86,0,0,1-.27,0,.76.76,0,0,1-.44-1,164.7,164.7,0,0,1,11-23.5.75.75,0,1,1,1.3.74,164.4,164.4,0,0,0-10.89,23.29A.76.76,0,0,1,24,108.36Zm184.6-.11a.76.76,0,0,1-.7-.49c-.17-.47-.35-.94-.53-1.4a.74.74,0,0,1,.43-1,.75.75,0,0,1,1,.42l.54,1.42a.76.76,0,0,1-.44,1A.86.86,0,0,1,208.59,108.25ZM206.12,102a.75.75,0,0,1-.69-.45A162.09,162.09,0,0,0,198,86.3a.75.75,0,0,1,1.32-.72A164.83,164.83,0,0,1,206.81,101a.75.75,0,0,1-.4,1A.72.72,0,0,1,206.12,102ZM183.81,64.3a.74.74,0,0,1-.59-.28,163.86,163.86,0,0,0-64.3-49.17,6.64,6.64,0,0,0-5.21,0,163.94,163.94,0,0,0-64,48.74.75.75,0,0,1-1.05.13.76.76,0,0,1-.13-1.06,165.56,165.56,0,0,1,64.56-49.19,8.12,8.12,0,0,1,6.38,0,165.27,165.27,0,0,1,64.89,49.62.75.75,0,0,1-.12,1A.74.74,0,0,1,183.81,64.3Z" fill="url(#a)"/><path d="M13.91,178a6.11,6.11,0,0,1,4.27,1.64,8.26,8.26,0,0,0,10.8,0,6.63,6.63,0,0,1,8.8,0,8,8,0,0,0,10.63,0,6.66,6.66,0,0,1,8.82,0,8.13,8.13,0,0,0,10.73,0,6.75,6.75,0,0,1,8.79,0,8.07,8.07,0,0,0,10.72,0,6.56,6.56,0,0,1,8.76,0,8.16,8.16,0,0,0,10.74,0,6.64,6.64,0,0,1,8.79,0,8.19,8.19,0,0,0,10.75,0c2.84-2.24,5.8-2.24,8.81,0,3.59,2.68,7.16,2.68,10.63,0a6.64,6.64,0,0,1,8.83,0,8.15,8.15,0,0,0,10.71,0,6.78,6.78,0,0,1,8.86,0c3.29,2.65,7.18,2.65,10.66,0,3-2.28,5.65-2.28,8.83,0,3.65,2.64,7.14,2.63,10.68,0s6.07-1.89,8.83,0l2.13,1.56,2.37,2.21a.76.76,0,0,0,.51.2.75.75,0,0,0,.51-1.3l-2.43-2.26-2.23-1.64c-2.56-1.76-6.08-3.36-10.59,0-3,2.27-5.77,2.27-8.9,0-2.33-1.68-6-3.52-10.61,0-3.77,2.85-6.88,1.59-8.82,0a8.27,8.27,0,0,0-10.74,0,6.71,6.71,0,0,1-8.82,0,8.12,8.12,0,0,0-10.7,0c-2.91,2.26-5.79,2.26-8.81,0-3.52-2.63-7.3-2.62-10.64,0a6.7,6.7,0,0,1-8.82,0,8.14,8.14,0,0,0-10.75,0,6.61,6.61,0,0,1-8.8,0,8.09,8.09,0,0,0-10.68,0,6.58,6.58,0,0,1-8.76,0,8.28,8.28,0,0,0-10.79,0,6.66,6.66,0,0,1-8.77,0,8.22,8.22,0,0,0-10.75,0,6.55,6.55,0,0,1-8.71,0,8.19,8.19,0,0,0-10.74,0,6.76,6.76,0,0,1-8.84,0,7.65,7.65,0,0,0-5.4-2,.75.75,0,0,0-.67.82A.74.74,0,0,0,13.91,178Z" fill="url(#a)"/><path d="M155.73,214a8.12,8.12,0,0,0-10.7,0c-2.91,2.26-5.79,2.26-8.81,0-3.52-2.64-7.3-2.63-10.64,0a6.71,6.71,0,0,1-8.82,0,8.14,8.14,0,0,0-10.75,0,6.61,6.61,0,0,1-8.8,0,8.1,8.1,0,0,0-10.68,0A7.33,7.33,0,0,1,83,215.65l3,.56a11.09,11.09,0,0,0,1.49-1,6.56,6.56,0,0,1,8.76,0,8.16,8.16,0,0,0,10.74,0,6.66,6.66,0,0,1,8.8,0,8.16,8.16,0,0,0,10.74,0c2.84-2.24,5.8-2.24,8.81,0a9,9,0,0,0,5.32,2l2.24-.35a10,10,0,0,0,3.07-1.67c3.56-2.77,6.62-1.55,8.2-.48l1.92-.44C156,214.22,155.84,214.13,155.73,214Z" fill="url(#a)"/><path d="M77.77,214.07a8.33,8.33,0,0,0-8.11-1.56q4.45,1.23,9,2.23A5.37,5.37,0,0,1,77.77,214.07Z" fill="url(#a)"/><path d="M175.29,208.1a8.27,8.27,0,0,0-10.74,0,6.69,6.69,0,0,1-8.81,0,8.13,8.13,0,0,0-10.71,0c-2.91,2.26-5.79,2.26-8.81,0-3.52-2.63-7.3-2.63-10.64,0a6.71,6.71,0,0,1-8.82,0,8.14,8.14,0,0,0-10.75,0,6.61,6.61,0,0,1-8.8,0,8.1,8.1,0,0,0-10.68,0,6.59,6.59,0,0,1-8.76,0,8.28,8.28,0,0,0-10.79,0,6.65,6.65,0,0,1-8.77,0,8.27,8.27,0,0,0-7.18-1.8q6.67,2.63,13.53,4.73a8.1,8.1,0,0,0,3.4-1.8,6.75,6.75,0,0,1,8.79,0,8.06,8.06,0,0,0,10.72,0,6.59,6.59,0,0,1,8.76,0,8.16,8.16,0,0,0,10.74,0,6.64,6.64,0,0,1,8.79,0,8.19,8.19,0,0,0,10.75,0c2.84-2.24,5.8-2.24,8.81,0,3.59,2.69,7.16,2.69,10.63,0a6.64,6.64,0,0,1,8.83,0,8.15,8.15,0,0,0,10.71,0,6.73,6.73,0,0,1,8.61-.19l1.72-.58A5.64,5.64,0,0,1,175.29,208.1Z" fill="url(#a)"/><path d="M184.11,202c-3.77,2.84-6.88,1.58-8.82,0a8.26,8.26,0,0,0-10.74,0,6.68,6.68,0,0,1-8.81,0A8.14,8.14,0,0,0,145,202c-2.91,2.26-5.79,2.26-8.81,0-3.52-2.64-7.29-2.64-10.64,0a6.71,6.71,0,0,1-8.82,0A8.14,8.14,0,0,0,106,202a6.61,6.61,0,0,1-8.8,0,8.1,8.1,0,0,0-10.68,0,6.58,6.58,0,0,1-8.76,0A8.29,8.29,0,0,0,67,202a6.63,6.63,0,0,1-8.76,0,8.23,8.23,0,0,0-10.76,0,7.17,7.17,0,0,1-3.08,1.53l2,.89a9.48,9.48,0,0,0,2-1.26,6.66,6.66,0,0,1,8.82,0,8.13,8.13,0,0,0,10.73,0,6.75,6.75,0,0,1,8.79,0,8.08,8.08,0,0,0,10.72,0,6.56,6.56,0,0,1,8.76,0,8.16,8.16,0,0,0,10.74,0,6.66,6.66,0,0,1,8.8,0,8.16,8.16,0,0,0,10.74,0c2.84-2.24,5.8-2.23,8.81,0,3.59,2.69,7.17,2.68,10.63,0a6.64,6.64,0,0,1,8.83,0,8.15,8.15,0,0,0,10.71,0,6.77,6.77,0,0,1,8.86,0c3.29,2.64,7.18,2.64,10.66,0,2.31-1.74,4.39-2.14,6.67-1.21.58-.27,1.18-.53,1.76-.81C191.14,199.84,188,199.05,184.11,202Z" fill="url(#a)"/><path d="M194.72,196.23c-2.33-1.69-6-3.52-10.61,0-3.77,2.85-6.88,1.59-8.82,0a8.26,8.26,0,0,0-10.74,0,6.69,6.69,0,0,1-8.81,0,8.13,8.13,0,0,0-10.71,0c-2.91,2.26-5.79,2.25-8.81,0-3.52-2.63-7.29-2.63-10.64,0a6.71,6.71,0,0,1-8.82,0,8.14,8.14,0,0,0-10.75,0,6.61,6.61,0,0,1-8.8,0,8.11,8.11,0,0,0-10.68,0,6.59,6.59,0,0,1-8.76,0,8.28,8.28,0,0,0-10.79,0,6.65,6.65,0,0,1-8.77,0,8.22,8.22,0,0,0-10.75,0,6.56,6.56,0,0,1-8.71,0,8.2,8.2,0,0,0-10-.54l1.5.83a6.66,6.66,0,0,1,7.58.85,8,8,0,0,0,10.63,0,6.65,6.65,0,0,1,8.82,0,8.12,8.12,0,0,0,10.73,0,6.75,6.75,0,0,1,8.79,0,8.06,8.06,0,0,0,10.72,0,6.58,6.58,0,0,1,8.76,0,8.16,8.16,0,0,0,10.74,0,6.66,6.66,0,0,1,8.8,0,8.19,8.19,0,0,0,10.74,0c2.84-2.25,5.8-2.24,8.81,0,3.59,2.69,7.17,2.69,10.63,0a6.64,6.64,0,0,1,8.83,0,8.15,8.15,0,0,0,10.71,0,6.79,6.79,0,0,1,8.86,0c3.29,2.65,7.18,2.65,10.66,0,3-2.29,5.65-2.28,8.83,0a10.33,10.33,0,0,0,3.55,1.74c.87-.44,1.75-.87,2.61-1.33A7.14,7.14,0,0,1,194.72,196.23Z" fill="url(#a)"/><path d="M203.62,190.28c-3,2.27-5.77,2.27-8.9,0-2.33-1.68-6-3.51-10.61,0-3.77,2.84-6.88,1.58-8.82,0a8.26,8.26,0,0,0-10.74,0,6.7,6.7,0,0,1-8.82,0,8.12,8.12,0,0,0-10.7,0c-2.91,2.26-5.79,2.26-8.81,0-3.52-2.64-7.3-2.63-10.64,0a6.7,6.7,0,0,1-8.82,0,8.15,8.15,0,0,0-10.75,0,6.61,6.61,0,0,1-8.8,0,8.09,8.09,0,0,0-10.68,0,6.58,6.58,0,0,1-8.76,0,8.29,8.29,0,0,0-10.79,0,6.65,6.65,0,0,1-8.77,0,8.22,8.22,0,0,0-10.75,0,6.55,6.55,0,0,1-8.71,0,8.2,8.2,0,0,0-10.74,0,6.68,6.68,0,0,1-6.07,1.44c.9.56,1.81,1.11,2.72,1.65A8.32,8.32,0,0,0,29,191.46a6.63,6.63,0,0,1,8.8,0,8,8,0,0,0,10.63,0,6.66,6.66,0,0,1,8.82,0,8.12,8.12,0,0,0,10.73,0,6.75,6.75,0,0,1,8.79,0,8.08,8.08,0,0,0,10.72,0,6.56,6.56,0,0,1,8.76,0,8.16,8.16,0,0,0,10.74,0,6.64,6.64,0,0,1,8.79,0,8.18,8.18,0,0,0,10.75,0c2.84-2.24,5.8-2.24,8.81,0,3.59,2.68,7.16,2.68,10.63,0a6.64,6.64,0,0,1,8.83,0,8.14,8.14,0,0,0,10.71,0,6.79,6.79,0,0,1,8.86,0c3.28,2.64,7.17,2.64,10.66,0,3-2.28,5.65-2.28,8.83,0,3.65,2.64,7.14,2.64,10.68,0,3-2.26,5.34-2,7.67-.71l1.41-.91C211.1,188.28,207.78,187.16,203.62,190.28Z" fill="url(#a)"/><path d="M217.63,186.69l-.86-.65-2.56-1.87c-2.56-1.77-6.08-3.36-10.59,0-3,2.26-5.77,2.26-8.9,0-2.33-1.69-6-3.52-10.61,0-3.77,2.85-6.88,1.59-8.82,0a8.26,8.26,0,0,0-10.74,0,6.69,6.69,0,0,1-8.81,0,8.13,8.13,0,0,0-10.71,0c-2.91,2.26-5.79,2.26-8.81,0-3.52-2.64-7.3-2.63-10.64,0a6.71,6.71,0,0,1-8.82,0,8.14,8.14,0,0,0-10.75,0,6.61,6.61,0,0,1-8.8,0,8.11,8.11,0,0,0-10.68,0,6.59,6.59,0,0,1-8.76,0,8.28,8.28,0,0,0-10.79,0,6.65,6.65,0,0,1-8.77,0,8.22,8.22,0,0,0-10.75,0,6.57,6.57,0,0,1-8.71,0,8.2,8.2,0,0,0-10.74,0,6.74,6.74,0,0,1-8.84,0,7.61,7.61,0,0,0-5.4-2,.51.51,0,0,0-.21.06v.08a8.44,8.44,0,0,0,.13,1.33.86.86,0,0,0,.22,0,6.07,6.07,0,0,1,4.27,1.63,8.24,8.24,0,0,0,10.8,0,6.62,6.62,0,0,1,8.8,0,8,8,0,0,0,10.63,0,6.65,6.65,0,0,1,8.82,0,8.12,8.12,0,0,0,10.73,0,6.75,6.75,0,0,1,8.79,0,8.06,8.06,0,0,0,10.72,0,6.58,6.58,0,0,1,8.76,0,8.16,8.16,0,0,0,10.74,0,6.66,6.66,0,0,1,8.79,0,8.17,8.17,0,0,0,10.75,0c2.84-2.24,5.8-2.24,8.81,0,3.59,2.69,7.16,2.69,10.63,0a6.64,6.64,0,0,1,8.83,0,8.15,8.15,0,0,0,10.71,0,6.79,6.79,0,0,1,8.86,0c3.29,2.64,7.18,2.65,10.66,0,3-2.29,5.65-2.28,8.83,0,3.65,2.64,7.14,2.64,10.68,0s6.07-1.9,8.83,0l2.52,1.85.75.57A7.15,7.15,0,0,0,217.63,186.69Z" fill="url(#a)"/><path d="M68.81,178.73a.74.74,0,0,1-.75-.75v-6.51a8.41,8.41,0,0,0-8.41-8.4H13.59a.75.75,0,0,1,0-1.5H59.65a9.92,9.92,0,0,1,9.91,9.9V178A.75.75,0,0,1,68.81,178.73Z" fill="url(#a)"/><path d="M40.43,162.66a.75.75,0,0,1-.75-.75v-3.86a8.41,8.41,0,0,0-8.4-8.4H14.2a.75.75,0,1,1,0-1.5H31.28a9.91,9.91,0,0,1,9.9,9.9v3.86A.74.74,0,0,1,40.43,162.66Z" fill="url(#a)"/><path d="M55.16,168H22.62a.75.75,0,0,1,0-1.5H55.16a.75.75,0,0,1,0,1.5Z" fill="url(#a)"/><path d="M30.06,158.7H13.79a.75.75,0,1,1,0-1.5H30.06a.75.75,0,1,1,0,1.5Z" fill="url(#a)"/><path d="M38.45,154H25.38a.75.75,0,1,1,0-1.5H38.45a.75.75,0,1,1,0,1.5Z" fill="url(#a)"/><path d="M34.54,172H13.79a.75.75,0,1,1,0-1.5H34.54a.75.75,0,0,1,0,1.5Z" fill="url(#a)"/><path d="M61.18,172H49.79a.75.75,0,1,1,0-1.5H61.18a.75.75,0,1,1,0,1.5Z" fill="url(#a)"/><path d="M163.47,180.12h0a.75.75,0,0,1-.75-.76l.07-8.13a9.9,9.9,0,0,1,9.9-9.82h.09l46.07.4a.75.75,0,0,1,0,1.5h0l-46.06-.4h-.08a8.42,8.42,0,0,0-8.4,8.33l-.07,8.14A.75.75,0,0,1,163.47,180.12Z" fill="url(#a)"/><path d="M192,162.67h0a.74.74,0,0,1-.74-.76l0-3.86a9.9,9.9,0,0,1,9.9-9.82h.09l17.08.15a.75.75,0,1,1,0,1.5h0l-17.09-.15h-.07a8.4,8.4,0,0,0-8.4,8.33l0,3.87A.75.75,0,0,1,192,162.67Z" fill="url(#a)"/><path d="M197.44,168h0l-20.57-.28a.75.75,0,0,1,0-1.5h0l20.57.28a.74.74,0,0,1,.74.76A.75.75,0,0,1,197.44,168Z" fill="url(#a)"/><path d="M218.67,158.94h0l-16.27-.14a.76.76,0,0,1-.75-.76.75.75,0,0,1,.75-.74h0l16.27.14a.73.73,0,0,1,.74.75A.75.75,0,0,1,218.67,158.94Z" fill="url(#a)"/><path d="M207.12,154.16h0L194.05,154a.75.75,0,0,1-.75-.75.76.76,0,0,1,.75-.75h0l13.07.12a.74.74,0,0,1,.74.75A.75.75,0,0,1,207.12,154.16Z" fill="url(#a)"/><path d="M218.56,172.26h0l-20.74-.18a.75.75,0,0,1,0-1.5h0l20.75.18a.75.75,0,0,1,.74.75A.76.76,0,0,1,218.56,172.26Z" fill="url(#a)"/><path d="M182.56,172h0l-11.38-.1a.75.75,0,1,1,0-1.5h0l11.39.1a.74.74,0,0,1,.74.75A.75.75,0,0,1,182.56,172Z" fill="url(#a)"/><circle cx="153.53" cy="94.29" r="0.64" fill="url(#a)"/><path d="M25.76,149.7a.79.79,0,0,1-.53-.22l-2.87-2.87a.77.77,0,0,1,0-1.07.75.75,0,0,1,1.06,0l2.87,2.87a.77.77,0,0,1,0,1.07A.79.79,0,0,1,25.76,149.7Z" fill="url(#a)"/><path d="M25.76,149.7a.79.79,0,0,1-.53-.22.77.77,0,0,1,0-1.07l2.87-2.87a.75.75,0,0,1,1.06,0,.77.77,0,0,1,0,1.07l-2.87,2.87A.79.79,0,0,1,25.76,149.7Z" fill="url(#a)"/><path d="M25.76,149.7A.75.75,0,0,1,25,149V145.1a.75.75,0,0,1,1.5,0V149A.76.76,0,0,1,25.76,149.7Z" fill="url(#a)"/><path d="M204.77,149.24a.74.74,0,0,1-.53-.22l-2.87-2.87a.75.75,0,0,1,1.06-1.06L205.3,148a.74.74,0,0,1,0,1.06A.73.73,0,0,1,204.77,149.24Z" fill="url(#a)"/><path d="M204.77,149.24a.74.74,0,0,1-.53-.22.75.75,0,0,1,0-1.06l2.87-2.87a.75.75,0,0,1,1.06,0,.74.74,0,0,1,0,1.06L205.3,149A.73.73,0,0,1,204.77,149.24Z" fill="url(#a)"/><path d="M204.77,149.24a.76.76,0,0,1-.75-.75v-3.85a.75.75,0,0,1,1.5,0v3.85A.75.75,0,0,1,204.77,149.24Z" fill="url(#a)"/><path d="M32.43,109.89a.24.24,0,0,1-.23-.22,2.29,2.29,0,0,0-2.28-2.29.23.23,0,0,1,0-.46,2.28,2.28,0,0,0,2.28-2.29.24.24,0,0,1,.23-.22h0a.22.22,0,0,1,.23.22,2.3,2.3,0,0,0,2.28,2.29.23.23,0,0,1,0,.46,2.29,2.29,0,0,0-2.28,2.29.22.22,0,0,1-.23.22Z" fill="url(#a)"/><path d="M177.46,104.94a.23.23,0,0,1-.23-.22,2.29,2.29,0,0,0-2.28-2.29.23.23,0,0,1,0-.46,2.28,2.28,0,0,0,2.28-2.29.22.22,0,0,1,.23-.22h0a.22.22,0,0,1,.23.22A2.3,2.3,0,0,0,180,102a.23.23,0,0,1,0,.46,2.29,2.29,0,0,0-2.28,2.29.22.22,0,0,1-.23.22Z" fill="url(#a)"/><path d="M85.6,96.39a.22.22,0,0,1-.23-.22,2.3,2.3,0,0,0-2.28-2.29.23.23,0,0,1,0-.46,2.29,2.29,0,0,0,2.28-2.29.22.22,0,0,1,.23-.22h0a.23.23,0,0,1,.23.22,2.29,2.29,0,0,0,2.28,2.29.23.23,0,0,1,0,.46,2.28,2.28,0,0,0-2.28,2.29.23.23,0,0,1-.23.22Z" fill="url(#a)"/><path d="M201.08,102.64a.15.15,0,0,1-.15-.15A1.55,1.55,0,0,0,199.4,101a.15.15,0,0,1-.15-.15.16.16,0,0,1,.15-.16,1.53,1.53,0,0,0,1.53-1.53.16.16,0,0,1,.15-.16h0a.16.16,0,0,1,.16.16,1.54,1.54,0,0,0,1.53,1.53.16.16,0,0,1,.15.16.15.15,0,0,1-.15.15,1.55,1.55,0,0,0-1.53,1.54A.16.16,0,0,1,201.08,102.64Z" fill="url(#a)"/><path d="M163.45,111.84a.16.16,0,0,1-.16-.15,1.54,1.54,0,0,0-1.53-1.54.15.15,0,0,1,0-.3,1.54,1.54,0,0,0,1.53-1.54.16.16,0,0,1,.16-.15h0a.15.15,0,0,1,.15.15,1.55,1.55,0,0,0,1.53,1.54.15.15,0,0,1,0,.3,1.55,1.55,0,0,0-1.53,1.54A.15.15,0,0,1,163.45,111.84Z" fill="url(#a)"/><path d="M48.14,101.81a.4.4,0,0,1-.39-.38A2.8,2.8,0,0,0,45,98.64a.38.38,0,0,1-.36-.38.38.38,0,0,1,.36-.38,2.78,2.78,0,0,0,2.78-2.79.38.38,0,0,1,.38-.38h0a.38.38,0,0,1,.38.38,2.8,2.8,0,0,0,2.78,2.79.38.38,0,0,1,.36.38.38.38,0,0,1-.36.38,2.8,2.8,0,0,0-2.78,2.79A.38.38,0,0,1,48.14,101.81Z" fill="url(#a)"/><path d="M161.62,92a.39.39,0,0,1-.39-.38,2.56,2.56,0,0,0-2.55-2.55.39.39,0,0,1,0-.77,2.55,2.55,0,0,0,2.55-2.55.38.38,0,0,1,.38-.38h0a.39.39,0,0,1,.38.38,2.57,2.57,0,0,0,2.55,2.55.39.39,0,0,1,0,.77A2.55,2.55,0,0,0,162,91.62a.38.38,0,0,1-.38.38Z" fill="url(#a)"/><path d="M65.36,100.37a1.51,1.51,0,0,1-2.13,2.13A1.51,1.51,0,0,1,65.36,100.37Z" fill="url(#a)"/><path d="M72.82,116.76a1.51,1.51,0,0,1-2.13,2.13A1.51,1.51,0,0,1,72.82,116.76Z" fill="url(#a)"/><path d="M132,169a14.87,14.87,0,0,1-6.65-1.42H112c-5.94,2.94-13.3.42-13.62.31l-.78-.3-.12-.05a.69.69,0,0,1-.25,0H83.65a.75.75,0,0,1,0-1.5H96.36a2.21,2.21,0,0,1,0-.68,7.77,7.77,0,0,1,.38-1.6v0a8.52,8.52,0,0,1,3.71-4.49,34.45,34.45,0,0,0,1.66-13.53c-.55-.16-.85-.27-.87-.28l-.49-.17-.25-13.18-6.7-3.17a28.63,28.63,0,0,0-6.46-.62h-.09a6,6,0,0,1-.84.09L83.79,142l2.42,2.23-6,22.93H77.51L81,146.2l-2.42-2L81.41,128a6.29,6.29,0,0,1-3.21-5.72c0-2.93,1.7-5.38,4-6l.41-2.55A14.85,14.85,0,0,1,80.27,112c-3.61-.65-4.4-4.72-4.3-6.83l.06-1.33,1.1.74c3.15,2.09,4.75,4,4.77,5.6a2.27,2.27,0,0,1-.25,1.06c.3.24.73.55,1.2.86l.7-4.44,6.61-4.52-1.91,9.82a6.72,6.72,0,0,1,1,0,8.37,8.37,0,0,1,5.93,3.72h6.09c-6.14-4.37-10.06-11-10.06-18.33a22.65,22.65,0,0,1,7.37-16.15V74.83a3.84,3.84,0,0,1,5.91-3.22l6.13,4A34.69,34.69,0,0,1,119,74.52a36.26,36.26,0,0,1,8.55,1.14l6.26-4a3.84,3.84,0,0,1,5.91,3.22V82.5c4.4,4.44,7,10.33,7,15.82,0,7.87-4.47,14.86-11.35,19.19a15.32,15.32,0,0,0,5.36-2.6c1-1.5,4.07-5.77,6.19-4.65,1.23.65,1.29,2.14,1.32,3.12,0,.19,0,.43,0,.61l.64-.32c1.63-.83,4.09-2.09,6.05-1.19a4.12,4.12,0,0,1,2.14,3c1.31,5.32-8.76,9.82-9.94,10.32a53,53,0,0,1-11.25,6.57l.06,4.31a10.66,10.66,0,0,1,8.6-4.1h.68l.06.69a12.44,12.44,0,0,1-.17,2.75,16.47,16.47,0,0,1,1.57-1.05,9.85,9.85,0,0,0,4.92-8.34l0-1.42,1.2.76a10.36,10.36,0,0,1,4.12,6.16,11.89,11.89,0,0,1-1.05,7.52,6.1,6.1,0,0,0,1.5-1.33l1-2.07.38,2.29c0,.24.91,5.9-2.38,10.05a10.64,10.64,0,0,1-5.93,3.66,8.3,8.3,0,0,0,2.91.4l2-.22L154,153.91c-.08.09-8.09,8.52-16.81,2.88a31.69,31.69,0,0,0,1.84,4.31,8.26,8.26,0,0,1,1.42,2.37v0a.14.14,0,0,1,0,.06,7.73,7.73,0,0,1,.47,1.85,1.73,1.73,0,0,1,0,.68h23.76a.75.75,0,0,1,0,1.5h-25l-.75.29A23,23,0,0,1,132,169Zm-34-4a5.58,5.58,0,0,0-.1.59.55.55,0,0,0,.35.59l.75.29s7.55,2.57,12.95-.52l.31-.18,3.06-1.48V164a.57.57,0,0,1,0-.18,1,1,0,0,1,0-.17v-.26q-.93.34-1.71.57a16.64,16.64,0,0,0-3,1.26C106.23,167.5,100.09,165.75,97.93,165Zm28,1.2c5.36,2.69,12.44.29,12.51.26l.14-.05a.73.73,0,0,1,.63-.34h.15a.6.6,0,0,0,.17-.48,7.34,7.34,0,0,0-.17-.84c-2.21.79-8.72,2.76-13.06.43a16.64,16.64,0,0,0-3-1.26,9.93,9.93,0,0,1-1.16-.43h0v.19a.57.57,0,0,1,0,.13.76.76,0,0,1,0,.15v.34l3.32,1.63h0l0,0,.31.17A.53.53,0,0,1,125.9,166.21ZM115,166.08h7.28l-1.73-.85v-.67l-3.82,0v.7Zm-16.59-2.49c2,.67,7.66,2.29,11.39.28.38-.21.77-.4,1.15-.57a8.05,8.05,0,0,0-2.65-2.67,6.14,6.14,0,0,1-.63-.34,6.92,6.92,0,0,0-9.26,3.3Zm27.88-.07.68.35c3.75,2,9.74.21,11.81-.51a7,7,0,0,0-8.89-3.2,10.33,10.33,0,0,1-1.38.74A6.36,6.36,0,0,0,126.3,163.52Zm-46.07-20,2.41,2-3,17.89,4.9-18.82-2.38-2.18,2.72-14.09H83.34l-.48,0ZM116.74,163l3.85,0,0-3.74a.13.13,0,0,1,0-.06v-3.58a2,2,0,1,0-4,0Zm5.36-1.17c.23.09.42.17.58.25a9.49,9.49,0,0,0,1,.37c.41.13.83.27,1.24.43a8.17,8.17,0,0,1,.7-1.23,5.56,5.56,0,0,1-3.51-.75Zm-10.54-.34a11,11,0,0,1,.81,1.2l.74-.24c.61-.18,1.32-.42,2.11-.72v-1.11A5.77,5.77,0,0,1,111.56,161.53ZM122.13,159c1.7,1.85,4.18,1.21,5.71.53a8.9,8.9,0,0,1,1.33-.7l.05,0a.73.73,0,0,1,.34-.12,8.38,8.38,0,0,1,6.9.35,38.89,38.89,0,0,1-2.74-12.94,43.44,43.44,0,0,1-4.32,1.1,12.74,12.74,0,0,1-8.31,6,3.49,3.49,0,0,1,1,2.48V159Zm-13.18.25c1.26.61,4.22,1.68,6.24-.56l0-3a3.45,3.45,0,0,1,1-2.45,13.1,13.1,0,0,1-8.59-6.17c-1.57-.3-2.91-.62-3.94-.89a36.39,36.39,0,0,1-1.35,12.28,8.62,8.62,0,0,1,5.89.41l.18.08,0,0C108.58,159.07,108.77,159.16,109,159.27Zm27.53-4.91c6.41,5.53,12.58,1.8,15.18-.31a20.2,20.2,0,0,1-4.5-1.41l-2.71-1.23,3-.2c3.51-.24,6.14-1.43,7.82-3.55a11.66,11.66,0,0,0,2.18-7.3,30.74,30.74,0,0,1-3.3,2.25l-2.79,1.67,1.78-2.73c2.15-3.29,2.94-6.34,2.36-9.08a8.81,8.81,0,0,0-2.43-4.35,11.33,11.33,0,0,1-5.52,8.13,15.37,15.37,0,0,0-3.71,3c-.05.06-.1.13-.16.19l0,0a9,9,0,0,0-1.42,2.29.76.76,0,0,1-1,.4.75.75,0,0,1-.39-1,10.74,10.74,0,0,1,1.82-2.87,7.54,7.54,0,0,0,1.2-4.25A9.27,9.27,0,0,0,136,139.4l.08,5.88-.5.18-.41.15A38.08,38.08,0,0,0,136.48,154.36Zm-26.85-6.93a11.27,11.27,0,0,0,8.92,4.54,11.12,11.12,0,0,0,8.8-4.4A57.31,57.31,0,0,1,109.63,147.43Zm-7.41-3.22c2.85.9,17.74,5.11,32.38,0l-.16-12.15c-.33-7.08-2.52-11.07-3.34-12.34A31.4,31.4,0,0,1,119,122.13a31,31,0,0,1-14.75-3.65c.32,9.5-1.45,12.57-2.25,13.47Zm30.5-24.7a26.7,26.7,0,0,1,3.14,11.25,53.36,53.36,0,0,0,9.74-5.63,15.77,15.77,0,0,1-4.54-8.58A17.49,17.49,0,0,1,132.72,119.51Zm-38.23,8.1,6.56,3.11c.58-.85,2-3.86,1.68-12.57h-7.1C95.82,120.11,96.09,124.89,94.49,127.61Zm-4.39-.7a26.6,26.6,0,0,1,2.83.33c1.7-2.15,1.42-7.48,1.14-9.59a7,7,0,0,0-4.95-3.23,4.93,4.93,0,0,0-1.16,0l-.24,1.22a.75.75,0,0,1,.16.15,4.17,4.17,0,0,0,.84.84,6.49,6.49,0,0,1,1,.62,7.23,7.23,0,0,0,1.21.46.74.74,0,0,1,.52.92.9.9,0,0,1-.12.24,5.7,5.7,0,0,1,1.12,3.33A6.17,6.17,0,0,1,90.1,126.91Zm-4.3,0h.54A5.06,5.06,0,0,0,91,122.23a4.78,4.78,0,0,0-1.93-3.62,7.2,7.2,0,0,1-1.18-.7,3.78,3.78,0,0,0-1.54-.35h-3c-2,0-3.64,2.09-3.64,4.67a4.63,4.63,0,0,0,2.74,4.53l.08,0a2.81,2.81,0,0,0,.82.12H85.8Zm56.56-11.68c.12,1,.94,6.12,4.56,9.06,3.06-1.36,9.59-5,8.75-8.45a2.69,2.69,0,0,0-1.3-2c-1.3-.6-3.46.5-4.75,1.16l-.78.39a1.43,1.43,0,0,1-1.39,0c-.63-.39-.66-1.16-.69-2s-.09-1.63-.52-1.85S143.89,113.05,142.36,115.22ZM98.61,84.31a20.81,20.81,0,0,0-5.87,14c0,12.3,11.78,22.31,26.25,22.31a30,30,0,0,0,11.16-2.12l-.35-.43h1.39c8.35-3.74,14.05-11.19,14.05-19.75a21.34,21.34,0,0,0-5.53-13.62v2l-1.08-.52a7.93,7.93,0,0,1-3.13-2.72.34.34,0,0,1-.12-.12c-2-2.48-5.8-3.48-6.28-3.6-1.55.17-3.5-1.09-3.9-1.36l-.94-.64,1.54-1A34.25,34.25,0,0,0,119,76a33.48,33.48,0,0,0-6.58.7l1.65,1.07-.94.64c-.4.27-2.35,1.53-3.9,1.36-.49.12-4.24,1.13-6.28,3.6a.34.34,0,0,1-.12.12,7.93,7.93,0,0,1-3.13,2.72l-1.08.52ZM83.73,116.06h2.39l.45-2.34v0l1.41-7.3-3.06,2.09Zm-6.17-9.39c.21,1.39.86,3.31,2.79,3.76a1,1,0,0,0,.05-.33C80.37,109.67,80,108.54,77.56,106.67ZM100.11,82.5v1.72a4.54,4.54,0,0,0,1.43-1.5V77.49a2.3,2.3,0,0,1,3.55-1.93l4.22,2.73a3.87,3.87,0,0,0,2-.52l-7.55-4.9a2.33,2.33,0,0,0-3.6,2V82.5Zm36.66.22a4.68,4.68,0,0,0,1.44,1.5V74.83a2.33,2.33,0,0,0-3.6-2l-7.55,4.9a3.84,3.84,0,0,0,1.94.52l4.22-2.73a2.3,2.3,0,0,1,3.55,1.93ZM131,78.81a14.54,14.54,0,0,1,4.3,2.38v-3.7a.79.79,0,0,0-.41-.7.77.77,0,0,0-.82,0Zm-27.12-2.12a.8.8,0,0,0-.39.1.79.79,0,0,0-.42.7v3.7a14.7,14.7,0,0,1,4.31-2.38l-3.07-2A.76.76,0,0,0,103.85,76.69ZM73.2,167.58H68a.76.76,0,0,1-.75-.76.74.74,0,0,1,.75-.74H73.2a.75.75,0,1,1,0,1.5Zm43.13-27.32a4.18,4.18,0,0,1-3.66-2.17,4,4,0,0,1-2.68-7,4.2,4.2,0,0,1-.16-1.18,4.44,4.44,0,0,1,4.44-4.43,4.38,4.38,0,0,1,3,1.16,4,4,0,0,1,2.35-.75,4.09,4.09,0,0,1,3.22,1.58,4.86,4.86,0,0,1,6.21,4.69,4.88,4.88,0,0,1-5.29,4.87,3.85,3.85,0,0,1-3.93,1.35A4.17,4.17,0,0,1,116.33,140.26Zm-2.73-3.85.22.6a2.67,2.67,0,0,0,5,.13l.31-.73.71.34a2.3,2.3,0,0,0,3-.92l.26-.48.54.11a3.7,3.7,0,0,0,.66.07,3.39,3.39,0,1,0-1.36-6.49l-.62.28-.34-.59a2.61,2.61,0,0,0-2.27-1.36,2.57,2.57,0,0,0-1.87.81l-.61.63-.53-.7a2.94,2.94,0,0,0-5,2.95l.26.61-.57.34a2.46,2.46,0,0,0-1.21,2.13,2.43,2.43,0,0,0,2.42,2.45,2.83,2.83,0,0,0,.5-.05Zm5.77-17.84c-11.24,0-20.38-7.68-20.38-17.13a14.76,14.76,0,0,1,1.68-6.82.72.72,0,0,1,.15-.27,19.59,19.59,0,0,1,11.81-9.09.55.55,0,0,1,.18-.06h.06a23.79,23.79,0,0,1,6.5-.89A22.78,22.78,0,0,1,132,88a1,1,0,0,1,.13.09c4.62,3.14,7.58,8,7.58,13.33A15,15,0,0,1,137,110a.9.9,0,0,1-.14.2C133.3,115.22,126.79,118.57,119.37,118.57Zm-15.29-8a20.32,20.32,0,0,0,15.29,6.47c6.95,0,13-3.12,16.31-7.76.87-2,.51-5.32.24-7A5.21,5.21,0,0,1,134,103l-.92.07.11-.91c.21-1.67-.74-4.29-1.58-6.12A9,9,0,0,1,130,98.77l-.76.82-.47-1a11.6,11.6,0,0,0-10.9-7.13h-.08a25.89,25.89,0,0,0,4.12,2.71l2,1-2.15.43a18,18,0,0,1-13.07-2.4,5.51,5.51,0,0,0-1.16,6.62l1.18,2.08-2.15-1A10.4,10.4,0,0,1,104,99.09C103,100.51,100.79,104.6,104.08,110.6Zm33.18-9.37a24.81,24.81,0,0,1,.45,3.91,13.09,13.09,0,0,0,.54-3.7,11.78,11.78,0,0,0-.07-1.34A7.16,7.16,0,0,1,137.26,101.23Zm-35.73-4.91a13.08,13.08,0,0,0-.67,8.2A10.89,10.89,0,0,1,103,98C102.39,97.41,101.9,96.8,101.53,96.32Zm30.68-2.48c.51,1,2.31,4.55,2.48,7.37a5.71,5.71,0,0,0,3-3.51,15.35,15.35,0,0,0-5.18-7.47A16.93,16.93,0,0,1,132.21,93.84Zm-29.93,1a19.88,19.88,0,0,0,3.22,3.58,6.91,6.91,0,0,1,1.9-6.06,17.36,17.36,0,0,1-1.84-1.53A15.82,15.82,0,0,0,102.28,94.8ZM117.85,90a13,13,0,0,1,11.71,6.83A13.41,13.41,0,0,0,131,89.11a21.31,21.31,0,0,0-11.6-3.31,22.46,22.46,0,0,0-5.5.67,9.79,9.79,0,0,0,2.39,3.59A11.47,11.47,0,0,1,117.85,90Zm-8.69,1.71a16.86,16.86,0,0,0,10.15,2.71c-2.25-1.44-5.78-4.13-6.88-7.49a20,20,0,0,0-5.69,2.94,18,18,0,0,0,2.13,1.65A.7.7,0,0,1,109.16,91.67Z" fill="url(#a)"/><path d="M112.75,105.68c-.11,1.49-1,2.64-2,2.57s-1.71-1.34-1.6-2.83,1-2.63,2-2.56S112.86,104.19,112.75,105.68Z" fill="url(#a)"/><path d="M129.59,105.68c-.11,1.49-1,2.64-2,2.57s-1.71-1.34-1.61-2.83,1-2.63,2-2.56S129.69,104.19,129.59,105.68Z" fill="url(#a)"/><path d="M190.65,119.55a.22.22,0,0,1-.22-.22,2.31,2.31,0,0,0-2.29-2.29.23.23,0,0,1,0-.46,2.31,2.31,0,0,0,2.29-2.29.24.24,0,0,1,.22-.23h0a.23.23,0,0,1,.23.23,2.3,2.3,0,0,0,2.28,2.29.23.23,0,0,1,0,.46,2.29,2.29,0,0,0-2.28,2.29.22.22,0,0,1-.23.22Z" fill="url(#a)"/><path d="M55.25,118.27A.23.23,0,0,1,55,118a2.29,2.29,0,0,0-2.28-2.28.24.24,0,0,1-.22-.23.22.22,0,0,1,.22-.23A2.29,2.29,0,0,0,55,113a.23.23,0,0,1,.23-.23h0a.24.24,0,0,1,.23.23,2.29,2.29,0,0,0,2.28,2.29.22.22,0,0,1,.22.23.24.24,0,0,1-.22.23A2.27,2.27,0,0,0,55.48,118a.23.23,0,0,1-.23.23Z" fill="url(#a)"/><path d="M165,133.54a.74.74,0,0,1-.74-.64.75.75,0,0,1,.63-.85s4.42-.68,4.42-3.42a.75.75,0,0,1,1.5,0c0,4-5.47,4.87-5.7,4.9Z" fill="url(#a)"/><path d="M175.16,133.54h-.1c-.24,0-5.71-.86-5.71-4.9a.75.75,0,0,1,1.5,0c0,2.74,4.38,3.41,4.42,3.42a.75.75,0,0,1-.11,1.49Z" fill="url(#a)"/><path d="M164,138.73a.75.75,0,0,1-.11-1.49c.06,0,5.4-.83,5.4-4.25a.75.75,0,0,1,1.5,0c0,4.72-6.41,5.69-6.68,5.73Z" fill="url(#a)"/><path d="M176.15,138.73H176c-.27,0-6.71-1-6.71-5.73a.75.75,0,0,1,1.5,0c0,3.43,5.37,4.24,5.42,4.25a.75.75,0,0,1-.1,1.49Z" fill="url(#a)"/><path d="M164,144.37a.75.75,0,0,1-.11-1.5c.06,0,5.4-.82,5.4-4.24a.75.75,0,0,1,1.5,0c0,4.71-6.41,5.69-6.68,5.73Z" fill="url(#a)"/><path d="M176.15,144.37H176c-.27,0-6.71-1-6.71-5.73a.75.75,0,0,1,1.5,0c0,3.43,5.37,4.24,5.42,4.24a.75.75,0,0,1,.64.85A.74.74,0,0,1,176.15,144.37Z" fill="url(#a)"/><path d="M165,149.57a.75.75,0,0,1-.11-1.5s4.48-.69,4.48-3.49a.75.75,0,1,1,1.5,0c0,4.1-5.53,4.94-5.77,5Z" fill="url(#a)"/><path d="M175.23,149.57h-.11c-.24,0-5.79-.88-5.79-5a.75.75,0,0,1,1.5,0c0,2.8,4.46,3.49,4.5,3.49a.75.75,0,0,1-.1,1.5Z" fill="url(#a)"/><path d="M165,155.43a.74.74,0,0,1-.74-.64.75.75,0,0,1,.63-.85s4.48-.69,4.48-3.49a.75.75,0,0,1,1.5,0c0,4.1-5.53,4.94-5.77,5Z" fill="url(#a)"/><path d="M175.23,155.43h-.11c-.24,0-5.79-.88-5.79-5a.75.75,0,0,1,1.5,0c0,2.82,4.46,3.49,4.5,3.49a.75.75,0,0,1-.1,1.49Z" fill="url(#a)"/><path d="M170.08,163.13a.75.75,0,0,1-.75-.75V129.12a.75.75,0,0,1,1.5,0v33.26A.76.76,0,0,1,170.08,163.13Z" fill="url(#a)"/><path d="M179.79,139.44a.75.75,0,0,1-.11-1.49s4.42-.68,4.42-3.42a.75.75,0,0,1,1.5,0c0,4-5.47,4.87-5.71,4.9Z" fill="url(#a)"/><path d="M189.91,139.44h-.11c-.23,0-5.7-.86-5.7-4.9a.75.75,0,0,1,1.5,0c0,2.74,4.37,3.41,4.41,3.42a.75.75,0,0,1-.1,1.49Z" fill="url(#a)"/><path d="M178.77,144.62a.75.75,0,0,1-.1-1.49c.05,0,5.39-.82,5.39-4.24a.75.75,0,0,1,1.5,0c0,4.71-6.41,5.69-6.68,5.73Z" fill="url(#a)"/><path d="M190.89,144.62h-.1c-.28,0-6.72-1-6.72-5.73a.75.75,0,0,1,1.5,0c0,3.43,5.37,4.23,5.43,4.24a.75.75,0,0,1,.63.85A.74.74,0,0,1,190.89,144.62Z" fill="url(#a)"/><path d="M178.77,150.26a.75.75,0,0,1-.1-1.49c.05,0,5.39-.82,5.39-4.24a.75.75,0,0,1,1.5,0c0,4.71-6.41,5.69-6.68,5.73Z" fill="url(#a)"/><path d="M190.89,150.26h-.1c-.28,0-6.72-1-6.72-5.73a.75.75,0,0,1,1.5,0c0,3.43,5.37,4.23,5.43,4.24a.75.75,0,0,1-.11,1.49Z" fill="url(#a)"/><path d="M179.69,155.46a.74.74,0,0,1-.74-.64.75.75,0,0,1,.63-.85s4.48-.69,4.48-3.49a.75.75,0,1,1,1.5,0c0,4.1-5.53,4.94-5.76,5Z" fill="url(#a)"/><path d="M190,155.46h-.11c-.23,0-5.79-.88-5.79-5a.75.75,0,1,1,1.5,0c0,2.8,4.46,3.48,4.51,3.49a.75.75,0,0,1-.11,1.49Z" fill="url(#a)"/><path d="M184.82,162.47a.76.76,0,0,1-.75-.75V135a.75.75,0,0,1,1.5,0v26.7A.76.76,0,0,1,184.82,162.47Z" fill="url(#a)"/><path d="M67.9,133.54h-.1c-.24,0-5.71-.86-5.71-4.9a.75.75,0,0,1,1.5,0c0,2.74,4.38,3.41,4.42,3.42a.75.75,0,0,1-.11,1.49Z" fill="url(#a)"/><path d="M57.78,133.54a.75.75,0,0,1-.1-1.49s4.41-.68,4.41-3.42a.75.75,0,0,1,1.5,0c0,4-5.47,4.87-5.7,4.9Z" fill="url(#a)"/><path d="M68.92,138.73h-.11c-.27,0-6.68-1-6.68-5.73a.75.75,0,0,1,1.5,0c0,3.43,5.34,4.24,5.39,4.25a.74.74,0,0,1,.64.84A.76.76,0,0,1,68.92,138.73Z" fill="url(#a)"/><path d="M56.8,138.73a.74.74,0,0,1-.74-.65.73.73,0,0,1,.63-.84c.06,0,5.43-.83,5.43-4.25a.75.75,0,0,1,1.5,0c0,4.72-6.44,5.69-6.72,5.73Z" fill="url(#a)"/><path d="M68.92,144.37h-.11c-.27,0-6.68-1-6.68-5.73a.75.75,0,0,1,1.5,0c0,3.43,5.34,4.24,5.39,4.24a.75.75,0,0,1-.1,1.5Z" fill="url(#a)"/><path d="M56.8,144.37a.75.75,0,0,1-.11-1.5c.06,0,5.43-.82,5.43-4.24a.75.75,0,0,1,1.5,0c0,4.72-6.44,5.69-6.72,5.73Z" fill="url(#a)"/><path d="M68,149.57h-.11c-.23,0-5.76-.88-5.76-5a.75.75,0,0,1,1.5,0c0,2.8,4.43,3.49,4.48,3.49a.75.75,0,0,1-.11,1.5Z" fill="url(#a)"/><path d="M57.72,149.57a.75.75,0,0,1-.11-1.5s4.51-.69,4.51-3.49a.75.75,0,0,1,1.5,0c0,4.1-5.56,4.94-5.79,5Z" fill="url(#a)"/><path d="M68,155.43h-.11c-.23,0-5.76-.88-5.76-5a.75.75,0,0,1,1.5,0c0,2.82,4.43,3.49,4.48,3.49a.75.75,0,0,1-.11,1.49Z" fill="url(#a)"/><path d="M57.72,155.43a.75.75,0,0,1-.11-1.49s4.51-.69,4.51-3.49a.75.75,0,0,1,1.5,0c0,4.1-5.56,4.94-5.79,5Z" fill="url(#a)"/><path d="M62.87,163.13a.76.76,0,0,1-.75-.75V129.12a.75.75,0,0,1,1.5,0v33.26A.76.76,0,0,1,62.87,163.13Z" fill="url(#a)"/><path d="M53.16,139.44h-.11c-.23,0-5.7-.86-5.7-4.9a.75.75,0,0,1,1.5,0c0,2.74,4.37,3.41,4.42,3.42a.75.75,0,0,1-.11,1.49Z" fill="url(#a)"/><path d="M43,139.44a.75.75,0,0,1-.11-1.49s4.42-.68,4.42-3.42a.75.75,0,0,1,1.5,0c0,4-5.47,4.87-5.7,4.9Z" fill="url(#a)"/><path d="M54.17,144.62h-.1c-.28,0-6.68-1-6.68-5.73a.75.75,0,0,1,1.5,0c0,3.43,5.33,4.23,5.39,4.24a.75.75,0,0,1,.63.85A.74.74,0,0,1,54.17,144.62Z" fill="url(#a)"/><path d="M42.05,144.62a.75.75,0,0,1-.1-1.49s5.43-.83,5.43-4.24a.75.75,0,0,1,1.5,0c0,4.71-6.45,5.69-6.72,5.73Z" fill="url(#a)"/><path d="M54.17,150.26h-.1c-.28,0-6.68-1-6.68-5.73a.75.75,0,0,1,1.5,0c0,3.43,5.33,4.23,5.39,4.24a.75.75,0,0,1-.11,1.49Z" fill="url(#a)"/><path d="M42.05,150.26a.75.75,0,0,1-.1-1.49s5.43-.83,5.43-4.24a.75.75,0,0,1,1.5,0c0,4.71-6.45,5.69-6.72,5.73Z" fill="url(#a)"/><path d="M53.26,155.46h-.11c-.24,0-5.76-.88-5.76-5a.75.75,0,0,1,1.5,0c0,2.8,4.43,3.48,4.47,3.49a.75.75,0,0,1-.1,1.49Z" fill="url(#a)"/><path d="M43,155.46a.75.75,0,0,1-.1-1.49s4.51-.69,4.51-3.49a.75.75,0,0,1,1.5,0c0,4.1-5.56,4.94-5.8,5Z" fill="url(#a)"/><path d="M48.13,162.47a.75.75,0,0,1-.75-.75V135a.75.75,0,0,1,1.5,0v26.7A.76.76,0,0,1,48.13,162.47Z" fill="url(#a)"/></svg>