<svg height="354" viewBox="0 0 588 354" width="588" xmlns="http://www.w3.org/2000/svg" xmlns:xlink="http://www.w3.org/1999/xlink"><linearGradient id="a" x1="-1.547%" x2="101.616%" y1="62.456%" y2="62.456%"><stop offset="0" stop-color="#7ec6e6"/><stop offset="1" stop-color="#834de1"/></linearGradient><path d="m399.7937 50.2478c0 3.791.761 7.464 2.262 10.918.205.47.025 1.02-.418 1.279-7.247 4.236-11.749 12.118-11.749 20.57 0 13.091 10.536 23.742 23.487 23.742 1.397 0 2.793-.133 4.162-.381 10.241-1.871 17.11-11.68 15.326-21.961-1.227-7.072-7.978-11.826-15.049-10.6-4.783.831-8 5.399-7.171 10.183.551 3.183 3.588 5.322 6.776 4.773 2.063-.358 3.451-2.328 3.094-4.391-.096-.551.274-1.076.826-1.172.558-.09 1.075.274 1.172.826.548 3.164-1.581 6.185-4.745 6.735-4.288.736-8.378-2.14-9.12-6.424-1.021-5.887 2.937-11.506 8.823-12.527 8.167-1.417 15.973 4.077 17.391 12.251 1.862 10.73-4.793 21.004-15.065 23.873 3.932 9.35 13.179 15.566 23.385 15.566 10.199 0 19.369-6.07 23.362-15.466.108-.255.317-.456.578-.552.261-.099.548-.084.799.038 3.029 1.478 6.285 2.227 9.677 2.227 7.524 0 14.521-3.852 18.584-10.137-3.823-.953-7.158-3.191-9.499-6.42-2.633-3.629-3.694-8.068-2.989-12.494 1.047-6.564 7.229-11.059 13.799-10.007 2.307.367 4.331 1.61 5.702 3.501 1.372 1.89 1.924 4.2 1.557 6.507-.557 3.496-3.846 5.897-7.354 5.332-2.615-.416-4.403-2.883-3.985-5.496.088-.552.61-.927 1.16-.841.554.088.93.608.842 1.16-.241 1.51.791 2.934 2.301 3.176 2.4.373 4.653-1.257 5.035-3.65.282-1.771-.143-3.547-1.197-4.999-1.053-1.452-2.608-2.407-4.379-2.689-5.462-.863-10.608 2.864-11.479 8.324-.621 3.893.313 7.794 2.628 10.986 2.314 3.193 5.732 5.291 9.623 5.911.006.001.011.005.017.006.008.002.016 0 .024.001 1.981.399 4.011.601 6.035.601 16.89 0 30.632-13.866 30.632-30.91s-13.742-30.911-30.632-30.911c-4.31 0-8.478.886-12.386 2.633-.482.212-1.04.027-1.298-.43-4.467-7.961-12.806-12.907-21.762-12.907-4.562 0-8.93 1.242-12.75 3.56-.004.003-.006.008-.011.011-.656.396-1.288.821-1.893 1.273-.001 0-.002.001-.002.001-4.244 3.166-7.227 7.661-8.491 12.865-1.444 5.94-.488 12.112 2.693 17.382 4.502 7.458 14.233 9.862 21.691 5.36 5.077-3.066 6.712-9.69 3.648-14.767-2.06-3.412-6.51-4.512-9.919-2.452-2.243 1.355-2.967 4.283-1.612 6.527.289.479.135 1.102-.344 1.392-.479.288-1.103.134-1.392-.345-1.932-3.2-.9-7.375 2.3-9.309 4.367-2.637 10.066-1.228 12.701 3.14 3.643 6.032 1.699 13.905-4.335 17.549-2.874 1.735-6.048 2.561-9.183 2.561-6.044 0-11.945-3.068-15.29-8.609-3.459-5.73-4.498-12.445-2.928-18.908.932-3.833 2.738-7.299 5.227-10.216-5.252-6.506-13.002-10.229-21.395-10.229-15.162 0-27.497 12.318-27.497 27.46zm-2.027 0c0-16.259 13.245-29.487 29.524-29.487 8.893 0 17.122 3.884 22.757 10.7 5.04-4.836 11.576-7.485 18.528-7.485 9.389 0 18.146 5.016 23.07 13.151 3.926-1.625 8.086-2.448 12.376-2.448 18.008 0 32.66 14.775 32.66 32.938 0 18.162-14.652 32.937-32.66 32.937-1.915 0-3.835-.169-5.719-.505-4.36 7.256-12.227 11.733-20.706 11.733-3.35 0-6.579-.67-9.615-1.993-4.514 9.6-14.137 15.746-24.801 15.746-11.143 0-21.244-6.849-25.408-17.133-.01.002-.021.002-.031.004-.009.002-.017.005-.026.006-.019.003-.037.003-.056.004-1.41.242-2.847.368-4.284.368-14.069 0-25.515-11.56-25.515-25.769 0-8.871 4.574-17.164 11.995-21.859-1.387-3.47-2.089-7.135-2.089-10.908zm-335.952 190.033-11.656 11.655c-.396.396-.396 1.037 0 1.434.198.197.457.296.717.296.259 0 .518-.099.716-.296l11.656-11.657c.396-.395.396-1.037 0-1.432-.396-.396-1.037-.396-1.433 0zm31.891-15.57v-.686c0-3.777-3.073-6.849-6.849-6.849h-14.099c-2.659 0-4.822-2.164-4.822-4.822s2.163-4.821 4.822-4.821h59.227c.56 0 1.014-.453 1.014-1.014 0-.56-.454-1.013-1.014-1.013h-59.227c-3.776 0-6.849 3.073-6.849 6.848 0 3.777 3.073 6.85 6.849 6.85h14.099c2.658 0 4.821 2.162 4.821 4.821v.686c0 2.659-2.163 4.823-4.821 4.823h-53.718c-.56 0-1.014.453-1.014 1.013 0 .561.454 1.014 1.014 1.014h53.718c3.776 0 6.849-3.072 6.849-6.85zm58.16-17.009h26.109c3.748 0 6.82-3.049 6.849-6.797l.003177-.343c.012823-1.84-.692177-3.572-1.988177-4.878-1.295-1.305-3.022-2.023-4.861-2.023h-63.452c-.56 0-1.014.453-1.014 1.013s.454 1.013 1.014 1.013h63.452c1.295 0 2.51.506 3.422 1.426.913.919 1.41 2.138 1.399 3.434l-.002.342c-.02 2.64-2.184 4.785-4.822 4.785h-26.109c-3.777 0-6.849 3.073-6.849 6.85v.171c0 3.776 3.072 6.848 6.849 6.848h16.072c.56 0 1.014-.453 1.014-1.012 0-.561-.454-1.014-1.014-1.014h-16.072c-2.658 0-4.822-2.164-4.822-4.822v-.171c0-2.659 2.164-4.822 4.822-4.822zm-99.189 4.993v-.258c0-3.776-3.072-6.849-6.848-6.849h-9.249c-2.66 0-4.823-2.163-4.823-4.821v-.258c0-2.658 2.163-4.822 4.823-4.822h67.642c.559 0 1.013-.453 1.013-1.013s-.454-1.013-1.013-1.013h-67.642c-3.777 0-6.849 3.072-6.849 6.848v.258c0 3.775 3.072 6.848 6.849 6.848h9.249c2.658 0 4.821 2.164 4.821 4.822v.258c0 2.658-2.163 4.822-4.821 4.822h-28.815c-.56 0-1.014.453-1.014 1.014 0 .559.454 1.012 1.014 1.012h28.815c3.776 0 6.848-3.072 6.848-6.848zm98.994 40.708c1.18-2.014 1.496-4.361.89-6.608-.613-2.272-2.092-4.169-4.163-5.339-5.849-3.303-13.347-1.313-16.713 4.441-2.263 3.863-2.869 8.366-1.706 12.677 1.176 4.363 4.016 8.003 7.995 10.252 3.748 2.118 7.843 3.124 11.886 3.124 8.294 0 16.371-4.237 20.795-11.797l-1.75-1.024c-6.024 10.296-19.452 13.852-29.934 7.932-3.503-1.98-6.001-5.182-7.035-9.015-1.02-3.782-.488-7.733 1.498-11.126 2.81-4.802 9.078-6.464 13.966-3.699 1.595.901 2.733 2.358 3.204 4.102.463 1.718.221 3.514-.681 5.056zm78.193 38.732-1.837-.857c-2.358 5.049-6.338 9.012-11.16 11.42l-.002-.004c-.655.328-1.319.618-1.989.884-.169.066-.339.133-.511.197-.256.095-.512.185-.769.271-.437.144-.876.284-1.323.404-.067.018-.135.033-.203.05-.494.128-.993.244-1.497.341-.063.013-.126.025-.189.036-1.735.324-3.523.467-5.34.408-8.713-.256-16.693-5.109-20.827-12.665l-.446-.817c-1.849-3.803-2.165-8.085-.856-12.114 1.374-4.233 4.351-7.675 8.382-9.693 5.641-2.825 12.566-.616 15.439 4.919.926 1.787 1.094 3.822.475 5.731-.631 1.941-1.998 3.521-3.848 4.447-2.512 1.258-5.597.277-6.875-2.184l-1.799.933c1.786 3.441 6.084 4.816 9.582 3.065 2.339-1.172 4.067-3.173 4.867-5.635.789-2.43.575-5.018-.602-7.289-3.38-6.514-11.52-9.115-18.147-5.801-4.52 2.264-7.859 6.128-9.402 10.881-1.521 4.682-1.11 9.67 1.157 14.05-6.49 11.325-18.662 18.102-31.89 17.715-9.181-.271-17.781-3.976-24.216-10.433l-.861-.864-.692 1.005c-4.027 5.849-10.717 9.245-17.888 9.005-8.641-.254-16.316-5.826-19.097-13.863l-.526-1.52-1.144 1.132c-4.11 4.06-9.568 6.206-15.395 6.029-5.632-.165-10.841-2.494-14.666-6.556-3.727-3.958-5.689-9.104-5.525-14.493.338-11.062 9.61-19.833 20.807-19.833.21 0 .422.003.634.011 2.194.063 4.34.478 6.398 1.203.253 4.173 1.67 8.204 4.201 11.686 3.177 4.372 8.196 6.703 13.285 6.703 3.274 0 6.579-.964 9.439-2.972 2.56-1.796 4.251-4.466 4.761-7.52.505-3.03-.216-6.075-2.031-8.573-2.723-3.748-8.041-4.621-11.852-1.946-1.368.96-2.271 2.388-2.544 4.021-.271 1.623.116 3.254 1.088 4.591l1.639-1.191c-.649-.895-.908-1.983-.727-3.066.182-1.094.789-2.051 1.708-2.696 2.914-2.042 6.973-1.38 9.049 1.478 1.492 2.055 2.086 4.558 1.67 7.048-.419 2.514-1.813 4.713-3.925 6.195-6.409 4.498-15.344 3.033-19.92-3.264-3.215-4.424-4.492-9.814-3.597-15.178.902-5.409 3.901-10.143 8.442-13.329l-.003-.003c3.571-2.501 7.958-3.933 12.677-3.78 2.409.07 4.762.544 6.997 1.405l1.237.478.136-1.319c.44-4.258 1.739-8.306 3.86-12.029l-1.761-1.003c-2.049 3.597-3.378 7.477-3.959 11.552-2.081-.673-4.245-1.046-6.45-1.111-.232-.006-.463-.01-.694-.01-4.903 0-9.454 1.555-13.196 4.173l-.008-.012c-.094.065-.177.142-.269.209-.45.324-.888.663-1.313 1.018-.141.121-.281.241-.419.363-.418.368-.822.751-1.212 1.148-.122.125-.244.249-.362.376-.398.424-.776.863-1.139 1.317-.083.102-.166.204-.247.308-.403.521-.78 1.058-1.137 1.613-.019.031-.04.06-.06.091-2.049 3.223-3.313 6.984-3.465 11.042-2.016-.63-4.108-.98-6.238-1.044-.232-.005-.463-.009-.694-.009-12.285 0-22.461 9.64-22.832 21.798-.181 5.93 1.976 11.591 6.075 15.944 4.197 4.457 9.909 7.011 16.083 7.193 5.766.143 11.431-1.85 15.757-5.58 3.431 8.056 11.446 13.538 20.405 13.802 7.471.215 14.443-3.094 18.913-8.916 6.7 6.315 15.44 9.928 24.744 10.203.383.011.765.017 1.145.017 13.156-.001 25.182-6.689 31.979-17.741 4.952 7.773 13.569 12.209 22.477 12.209 2.274 0 4.565-.3 6.819-.895.076-.02.153-.039.229-.061.509-.138 1.016-.294 1.52-.465.098-.032.196-.061.293-.095.554-.195 1.104-.404 1.65-.637.185-.079.364-.171.548-.254.307-.14.614-.274.918-.426l-.003-.006c5.224-2.606 9.539-6.893 12.094-12.366zm66.098-177.319c.896.504 1.967.397 2.74-.181l7.774 4.379-3.567 1.821c-.749-.609-1.815-.759-2.73-.292-1.237.632-1.728 2.147-1.096 3.385.632 1.236 2.148 1.727 3.384 1.095.915-.467 1.418-1.418 1.364-2.382l3.356-1.714-.746 8.64c-.913.313-1.604 1.138-1.693 2.161-.119 1.384.906 2.603 2.29 2.722 1.384.12 2.603-.906 2.722-2.289.089-1.024-.452-1.955-1.299-2.42l.793-9.201 4.971 2.658c-.073.962.413 1.923 1.319 2.407 1.225.655 2.749.193 3.403-1.032.656-1.224.194-2.748-1.031-3.404-.906-.484-1.975-.354-2.735.241l-4.45-2.38 7.935-4.414c.771.582 1.841.694 2.738.195 1.214-.676 1.651-2.208.976-3.421-.675-1.214-2.207-1.65-3.42-.975-.898.499-1.367 1.467-1.279 2.429l-7.356 4.092 1.15-2.936c.965-.042 1.861-.636 2.236-1.593.506-1.293-.132-2.753-1.425-3.259-1.294-.506-2.753.132-3.259 1.425-.375.957-.12 2.003.56 2.688l-1.661 4.243-8.229-4.635c.093-.961-.371-1.932-1.266-2.436-1.21-.682-2.744-.253-3.426.957-.681 1.21-.253 2.744.957 3.426zm74.453 52.155c.896.505 1.967.398 2.74-.18l7.774 4.378-3.568 1.822c-.749-.609-1.814-.759-2.729-.292-1.237.632-1.728 2.147-1.096 3.384s2.147 1.728 3.384 1.096c.915-.468 1.418-1.419 1.363-2.383l3.357-1.714-.745 8.641c-.913.313-1.606 1.138-1.694 2.161-.119 1.384.906 2.603 2.29 2.722s2.603-.906 2.722-2.29c.088-1.024-.452-1.954-1.299-2.419l.793-9.202 4.971 2.658c-.072.963.412 1.924 1.318 2.408 1.225.654 2.749.193 3.404-1.032s.193-2.749-1.032-3.403c-.906-.485-1.974-.355-2.735.239l-4.449-2.379 7.935-4.415c.771.582 1.841.695 2.738.195 1.214-.675 1.651-2.207.976-3.42-.676-1.214-2.207-1.651-3.421-.975-.898.499-1.367 1.468-1.279 2.429l-7.355 4.092 1.15-2.936c.965-.042 1.861-.637 2.235-1.594.507-1.293-.132-2.752-1.425-3.258-1.293-.507-2.752.132-3.258 1.425-.374.957-.121 2.002.56 2.688l-1.661 4.243-8.23-4.635c.094-.961-.37-1.932-1.265-2.437-1.21-.681-2.744-.253-3.426.958-.682 1.21-.253 2.744.957 3.425zm-177.203 11.696c0-.081-.065-.146-.146-.146s-.147.065-.147.146c0 .163.293.163.293 0zm1.734 0c0 1.038-.843 1.88-1.88 1.88s-1.88-.842-1.88-1.88c0-1.037.843-1.88 1.88-1.88s1.88.843 1.88 1.88zm-9.334-4.404c0-.081-.066-.147-.147-.147-.08 0-.146.066-.146.147 0 .162.293.162.293 0zm1.734 0c0 1.037-.844 1.88-1.881 1.88-1.036 0-1.88-.843-1.88-1.88s.844-1.881 1.88-1.881c1.037 0 1.881.844 1.881 1.881zm5.72-16.64c1.037 0 1.88-.844 1.88-1.881s-.843-1.881-1.88-1.881-1.88.844-1.88 1.881.843 1.881 1.88 1.881zm-7.601-4.406c1.037 0 1.881-.843 1.881-1.881 0-1.037-.844-1.88-1.881-1.88-1.036 0-1.88.843-1.88 1.88 0 1.038.844 1.881 1.88 1.881zm264.362 69.642c0 .613.318 1.163.85 1.469.532.307 1.169.303 1.697-.004l35.611-20.039c1.288-.75 2.096-2.156 2.096-3.66v-32.856c0-.678-.353-1.282-.944-1.615-.286-.161-.599-.242-.91-.242-.331 0-.662.091-.961.272l-35.114 19.611c-1.421.865-2.325 2.469-2.325 4.168zm-12.833-82.737c-.001-.213-.061-.744-.616-1.063l-24.688-13.512-26.209 15.066 24.011 13.863c.424.244.763.593 1.014.996l25.896-14.295c.534-.311.592-.842.592-1.055zm-.048 3.069-25.643 14.156c-.109.059-.223.089-.338.106v28.352l25.981-15.307zm0 29.66-25.147 14.814v29.945l22.763-12.924c1.47-.835 2.384-2.404 2.384-4.097zm-27.062 45.846c-.067-.136-.112-.282-.112-.444v-29.993c-.094.071-.176.155-.279.215l-.001.001-25.027 14.449c-.182.105-.377.174-.573.237v29.62c1-.134 1.979-.452 2.88-.964zm-26.432-17.528 24.51-14.15-6.624-3.772c-.59.761-1.325 1.416-2.184 1.91l-12.394 7.157c-1.162.671-2.465 1.006-3.768 1.006-1.302 0-2.604-.335-3.766-1.006l-12.396-7.157c-.771-.446-1.435-1.028-1.992-1.693l-6.377 3.808 24.073 13.897c.283.165.635.163.918 0zm-1.588 1.898c-.114-.048-.234-.078-.343-.142l-24.804-14.32v30.455l22.097 12.733c.95.547 1.99.877 3.05 1.003zm-25.371-48.591 24.62-14.215-25.422-14.675c-.348-.201-.524-.579-.496-.956l-25.844 14.208c-.326.188-.556.494-.67.849.009.054.032.103.032.159v.881c.126.328.352.61.672.791l26.055 14.005c.253-.426.611-.792 1.053-1.047zm-1.444 31.663c-.005-.072-.028-.141-.028-.214v-28.325l-26.308-14.142v27.525c.067.022.138.031.201.068zm-.359 2.134-25.977-14.997v26.889c0 1.701.916 3.284 2.39 4.134l23.587 13.593zm-21.739-53.727-6.066-3.455c-.59.761-1.324 1.416-2.182 1.911l-12.396 7.156c-1.161.671-2.464 1.007-3.767 1.007s-2.605-.336-3.767-1.007l-12.396-7.156c-.771-.446-1.434-1.028-1.991-1.693l-6.377 3.807 24.072 13.898c.282.163.635.164.917.001l17.898-10.334c.3-.662.797-1.225 1.459-1.608zm-6.265 6.597-16.674 9.626c-.182.105-.377.174-.572.237v29.619c.999-.133 1.978-.452 2.878-.962l14.368-8.158zm0 32.694-13.367 7.588c-1.531.869-3.244 1.303-4.957 1.303-1.734 0-3.468-.444-5.013-1.335l-28.222-16.263c1.134 2.283 1.687 4.856 1.506 7.499-.264 3.871-1.983 7.304-4.787 9.795 3.263 2.911 5.043 7.158 4.8 11.625-.268 4.916-2.977 9.324-7.25 11.791l-10.558 6.096 2.286 1.325c4.553 2.637 10.166 2.568 14.652-.181l50.91-29.491zm0 12.095-49.872 28.889c-2.606 1.597-5.555 2.399-8.509 2.399-2.825 0-5.656-.733-8.197-2.205l-3.294-1.91-5.379 3.105 2.534 1.469c8.887 5.151 19.848 5.015 28.608-.351l43.976-25.522c.042-.024.089-.027.133-.045zm-52.075-13.441c.253-3.701-1.118-7.262-3.698-9.789l-.024-.014c-.125-.072-.227-.169-.308-.279-.121-.11-.243-.219-.368-.324-.266.176-.538.346-.817.507l-33.933 19.591c-3.097 1.788-6.571 2.682-10.044 2.682-3.474.001-6.946-.894-10.044-2.682l-33.933-19.591c-.277-.16-.548-.329-.813-.505-2.976 2.503-4.626 6.252-4.413 10.219.231 4.296 2.505 7.998 6.24 10.155l33.933 19.59c5.57 3.216 12.491 3.216 18.061 0l33.932-19.59c.326-.188.627-.402.93-.614.017-.027.021-.058.04-.085.149-.203.362-.323.589-.377 2.743-2.169 4.426-5.317 4.67-8.894zm-93.741-12.752c.243.047.472.176.63.392.022.03.026.066.044.097.299.208.592.423.912.608l33.933 19.591c5.57 3.217 12.49 3.217 18.061 0l33.932-19.591c3.919-2.262 6.259-6.316 6.259-10.84 0-4.526-2.34-8.578-6.259-10.84l-33.932-19.591c-2.785-1.608-5.908-2.412-9.031-2.412s-6.245.803-9.03 2.412l-33.933 19.591c-3.918 2.262-6.258 6.314-6.258 10.84-.001 3.872 1.723 7.388 4.672 9.743zm73.391-38.619v7.542l15.135 8.738c4.553 2.629 7.272 7.338 7.272 12.596 0 4.232-1.764 8.106-4.825 10.829.08.071.163.139.242.213l8.152 4.698v-29.619zm26.335 12.863c-.005-.072-.028-.14-.028-.213v-28.326l-26.307-14.142v27.525c.067.022.137.031.2.068zm1.668 2.466v30.455l22.097 12.733c.951.547 1.991.877 3.051 1.003v-29.728c-.115-.049-.235-.08-.345-.143zm-28.035-48.917c.008.053.032.102.032.158v.881c.126.327.351.61.671.791l26.055 14.006c.254-.426.611-.792 1.053-1.047l24.621-14.216-25.423-14.673c-.348-.202-.524-.58-.496-.957l-25.844 14.208c-.324.188-.555.493-.669.849zm27.989-15.868c.011.006.023.005.034.012l26.807 15.472.001.001.088.05 26.004-14.949-23.57-12.899c-2.162-1.245-4.822-1.242-6.961-.003zm8.419 54.813c0 1.961 1.055 3.788 2.754 4.769l12.395 7.156c1.698.982 3.809.982 5.507 0l12.397-7.156c1.698-.981 2.753-2.808 2.753-4.769v-14.313c0-1.961-1.055-3.789-2.753-4.77l-12.397-7.156c-.849-.491-1.801-.736-2.753-.736s-1.904.245-2.754.736l-12.395 7.156c-1.699.981-2.754 2.809-2.754 4.77zm-2.027 0v-14.313c0-2.683 1.444-5.183 3.767-6.525l12.396-7.157c.875-.505 1.829-.819 2.802-.944l.002-7.622-24.523 14.16c-.28.162-.454.462-.458.785 0 .037.004.072-.001.109v28.629l6.708-4.004c-.442-.967-.693-2.025-.693-3.118zm39.86-14.313v14.313c0 .995-.2 1.964-.569 2.859l6.583 3.75v-28.215c0-.327-.174-.632-.459-.795l-24.421-14.1-.001 7.579c.939.133 1.859.439 2.704.927l12.396 7.157c2.323 1.342 3.767 3.842 3.767 6.525zm8.766-38.772-26.209 15.065 24.012 13.863c.424.244.763.594 1.014.996l25.896-14.296c.533-.311.592-.841.592-1.054-.001-.213-.061-.743-.615-1.063zm25.257 44.914v-27.271l-25.643 14.156c-.108.059-.223.089-.338.107v27.29zm2.597 60.326c0 1.962 1.055 3.789 2.753 4.769l12.396 7.157c1.699.982 3.809.982 5.507 0l12.397-7.157c1.697-.98 2.753-2.807 2.753-4.769v-14.313c0-1.961-1.056-3.788-2.754-4.769l-12.396-7.156c-.849-.491-1.801-.736-2.754-.736-.952 0-1.904.245-2.753.736l-12.396 7.156c-1.698.981-2.753 2.808-2.753 4.769zm-2.027 0v-14.313c0-2.683 1.443-5.183 3.767-6.525l12.396-7.156c.874-.505 1.828-.819 2.802-.944l.001-7.621-24.522 14.159c-.281.162-.456.463-.458.787-.001.036.003.07-.001.105v28.63l6.707-4.004c-.441-.966-.692-2.024-.692-3.118zm39.859-14.313v14.313c0 .995-.2 1.965-.568 2.86l6.584 3.749v-28.215c0-.327-.176-.631-.458-.794l-24.423-14.1-.001 7.58c.939.133 1.859.438 2.704.926l12.395 7.156c2.324 1.342 3.767 3.842 3.767 6.525zm-46.251-40.5c.011.006.023.006.034.012l26.806 15.473.089.051 26.006-14.948-23.571-12.9c-2.162-1.245-4.822-1.242-6.962-.003l-15.106 8.305c-.03.015-.057.035-.089.048zm91.129 99.04v-2.111l-50.243 28.129c-.158.088-.326.129-.494.129-.356 0-.701-.186-.886-.518-.274-.489-.099-1.106.389-1.379l51.234-28.685v-28.461c0-2.403 1.277-4.672 3.332-5.919l2.848-1.59-15.006-8.382v26.517c0 2.42-1.308 4.665-3.411 5.861l-47.791 27.131c-1.531.869-3.245 1.303-4.957 1.303-1.735 0-3.468-.445-5.013-1.335l-47.712-27.494c-2.1-1.21-3.404-3.467-3.404-5.89v-6.091l-43.071 24.995c-4.792 2.936-10.209 4.41-15.631 4.41-5.184 0-10.373-1.346-15.032-4.046l-3.543-2.053-13.946 8.052c-3.098 1.787-6.571 2.683-10.044 2.683s-6.946-.896-10.044-2.683l-22.444-12.959c-.485-.28-.651-.9-.371-1.385.279-.486.9-.651 1.384-.371l22.445 12.959c5.57 3.215 12.491 3.217 18.061 0l33.932-19.592c3.732-2.154 6.007-5.852 6.24-10.144.216-3.98-1.441-7.74-4.433-10.246-.264.175-.516.362-.793.523l-33.933 19.59c-3.098 1.788-6.571 2.683-10.044 2.683s-6.946-.895-10.044-2.683l-33.933-19.59c-4.276-2.469-6.986-6.881-7.25-11.802-.239-4.459 1.536-8.697 4.789-11.604-3.053-2.723-4.811-6.59-4.811-10.815 0-5.258 2.719-9.967 7.272-12.596l33.933-19.591c6.196-3.575 13.893-3.575 20.088 0l16.77 9.683v-38.58c-.072-.284-.113-.578-.115-.881-.006-1.299.661-2.463 1.784-3.113l49.722-27.335c2.745-1.591 6.182-1.594 8.951.001l50.343 27.553c1.038.597 1.647 1.65 1.65 2.825 0 .258-.04.506-.095.747.019.079.048.154.048.238v28.244l13.555-7.452c2.745-1.59 6.184-1.595 8.951.001l50.343 27.551c1.038.599 1.649 1.651 1.651 2.827.001.256-.04.505-.096.746.019.078.049.154.049.238v30.648l17.085 9.543 30.187-16.86c1.184-.719 2.648-.741 3.885-.045s1.976 1.961 1.976 3.381v32.856c0 2.223-1.193 4.3-3.115 5.418l-35.611 20.039c-.577.336-1.216.505-1.855.505-.637 0-1.277-.168-1.86-.503-1.169-.671-1.866-1.878-1.866-3.225zm-274.254.732 118.764 66.492c4.88 2.732 10.351 4.098 15.823 4.098 5.473 0 10.944-1.366 15.825-4.099l12.95-7.251c.489-.273.663-.891.389-1.378-.273-.489-.89-.663-1.379-.39l-12.951 7.25c-9.151 5.121-20.517 5.122-29.668.001l-118.763-66.49c-.487-.274-1.106-.1-1.379.388-.274.489-.099 1.106.389 1.379zm61.171-169.286c.188.327.529.509.88.509.171 0 .345-.044.504-.135l53.094-30.513c11.499-6.646 25.813-6.691 37.349-.121l10.209 5.892c.486.278 1.105.112 1.385-.371.28-.485.113-1.105-.371-1.385l-10.214-5.895c-12.165-6.928-27.252-6.88-39.37.124l-53.092 30.511c-.485.28-.652.899-.374 1.384zm282.812 105.8c-.02.015-.039.033-.058.049-.086.071-.159.152-.216.244-.006.009-.015.013-.02.022-.002.003-.002.006-.003.009-.058.102-.092.214-.112.331-.005.029-.009.056-.011.086-.002.027-.01.054-.01.082v47.129c0 .561.453 1.014 1.013 1.014s1.014-.453 1.014-1.014v-45.368l14.188 8.238c.16.093.334.137.507.137.349 0 .69-.181.878-.505.281-.484.116-1.104-.369-1.386l-14.269-8.286 22.415-14.307c.471-.301.609-.928.308-1.4-.301-.471-.928-.612-1.399-.308l-23.819 15.202c-.013.009-.023.022-.037.031zm-61.346 79.346c-.062.061-.118.128-.198.172l-20.79 11.9-3.534 2.021h53.791c2.977 0 5.399-2.421 5.399-5.398v-.648c0-2.977-2.422-5.399-5.399-5.399h-23.594c-2.275 0-4.312-1.031-5.675-2.648zm118.759 21.616v.583c0 4.095-3.33 7.425-7.424 7.425h-70.801c-2.976 0-5.398 2.423-5.398 5.398v1.012c0 2.976 2.422 5.398 5.398 5.398h42.659c4.095 0 7.426 3.33 7.426 7.425v.349c0 4.094-3.331 7.425-7.426 7.425h-123.958c-4.094 0-7.425-3.331-7.425-7.425v-.583c0-4.095 3.331-7.425 7.425-7.425h54.202c2.977 0 5.399-2.422 5.399-5.399v-.404c0-2.975-2.422-5.397-5.399-5.397h-65.53c-.56 0-1.014-.454-1.014-1.014 0-.561.454-1.014 1.014-1.014h65.53c4.095 0 7.425 3.33 7.425 7.425v.404c0 4.095-3.33 7.425-7.425 7.425h-54.202c-2.977 0-5.398 2.423-5.398 5.399v.583c0 2.976 2.421 5.398 5.398 5.398h123.958c2.977 0 5.398-2.422 5.398-5.398v-.349c0-2.976-2.421-5.397-5.398-5.397h-42.659c-4.095 0-7.425-3.331-7.425-7.426v-1.012c0-4.095 3.33-7.425 7.425-7.425h70.801c2.975 0 5.398-2.422 5.398-5.398v-.583c0-2.977-2.423-5.399-5.398-5.399h-54.341c-4.095 0-7.425-3.33-7.425-7.424v-.389c0-4.095 3.33-7.425 7.425-7.425h21.126c2.975 0 5.398-2.422 5.398-5.398v-1.166c0-2.976-2.423-5.399-5.398-5.399h-58.979c-.049.008-.097.02-.146.02-.05 0-.097-.012-.146-.02h-13.174c-2.976 0-5.398 2.423-5.398 5.399v.807c0 2.977 2.422 5.399 5.398 5.399h23.594c4.095 0 7.426 3.331 7.426 7.426v.648c0 4.095-3.331 7.426-7.426 7.426h-57.398c-.091.025-.183.04-.275.04-.094 0-.187-.015-.277-.04h-69.021c-.559 0-1.013-.453-1.013-1.014 0-.56.454-1.014 1.013-1.014h69.098l6.61-3.782 20.79-11.898c.05-.03.106-.033.159-.053-.448-.955-.705-2.016-.705-3.138v-.807c0-4.095 3.331-7.425 7.425-7.425h13.082l19.429-11.121c4.25-2.446 6.893-7.011 6.893-11.915v-53.703c0-6.308-3.405-12.164-8.886-15.284l-20.163-11.638c-.484-.281-.65-.9-.371-1.385.28-.485.897-.652 1.385-.371l20.158 11.636c6.106 3.477 9.903 10.008 9.903 17.042v53.703c0 5.628-3.03 10.866-7.909 13.674l-16.358 9.362h55.282c4.095 0 7.425 3.33 7.425 7.425v1.166c0 4.094-3.33 7.425-7.425 7.425h-21.126c-2.977 0-5.399 2.422-5.399 5.398v.389c0 2.975 2.422 5.397 5.399 5.397h54.341c4.094 0 7.424 3.331 7.424 7.426zm-526.103-78.105h78.993c3.818 0 6.924-3.105 6.924-6.922v-.322c0-3.818-3.106-6.924-6.924-6.924h-20.886c-2.7 0-4.897-2.196-4.897-4.896v-.933c0-2.7 2.197-4.896 4.897-4.896h46.825c3.818 0 6.924-3.106 6.924-6.925v-.536c0-3.818-3.106-6.923-6.924-6.923h-50.088c-2.701 0-4.897-2.198-4.897-4.898v-.358c0-2.7 2.196-4.896 4.897-4.896h19.472c3.818 0 6.924-3.106 6.924-6.924v-1.074c0-3.818-3.106-6.924-6.924-6.924h-48.34c-3.818 0-6.924 3.106-6.924 6.924v.744c0 3.818 3.106 6.924 6.924 6.924h3.312c2.701 0 4.897 2.196 4.897 4.896v.599c0 2.7-2.196 4.897-4.897 4.897h-21.001c-.561 0-1.014.453-1.014 1.013s.453 1.014 1.014 1.014h21.001c3.818 0 6.924-3.106 6.924-6.924v-.599c0-3.817-3.106-6.923-6.924-6.923h-3.312c-2.701 0-4.897-2.197-4.897-4.897v-.744c0-2.7 2.196-4.897 4.897-4.897h48.34c2.701 0 4.897 2.197 4.897 4.897v1.074c0 2.7-2.196 4.896-4.897 4.896h-19.472c-3.818 0-6.924 3.106-6.924 6.924v.358c0 3.819 3.106 6.925 6.924 6.925h50.088c2.7 0 4.897 2.196 4.897 4.896v.536c0 2.701-2.197 4.898-4.897 4.898h-46.825c-3.818 0-6.924 3.106-6.924 6.923v.933c0 3.817 3.106 6.923 6.924 6.923h20.886c2.7 0 4.897 2.197 4.897 4.897v.322c0 2.7-2.197 4.896-4.897 4.896h-78.993c-2.7 0-4.896-2.196-4.896-4.896v-.538c0-2.7 2.196-4.897 4.896-4.897h33.13c3.818 0 6.924-3.106 6.924-6.923v-.373c0-3.818-3.106-6.924-6.924-6.924h-31.6c-.56 0-1.014.454-1.014 1.014s.454 1.014 1.014 1.014h31.6c2.7 0 4.897 2.196 4.897 4.896v.373c0 2.7-2.197 4.897-4.897 4.897h-33.13c-3.817 0-6.923 3.106-6.923 6.923v.538c0 3.817 3.106 6.922 6.923 6.922zm466.694-67.492c-.311-.466-.939-.592-1.406-.281l-10.919 7.28c-.287.192-.457.516-.451.862.007.345.188.663.482.844l11.829 7.279c.166.102.35.15.532.15.34 0 .673-.171.863-.481.293-.478.144-1.102-.331-1.395l-10.484-6.451 9.604-6.402c.466-.31.592-.939.281-1.405zm-446.084-41.972 11.83 7.28c.165.101.349.15.53.15.34 0 .673-.171.864-.482.293-.477.145-1.102-.332-1.395l-10.483-6.45 9.604-6.402c.466-.311.591-.939.281-1.406-.31-.465-.941-.591-1.406-.28l-10.919 7.279c-.288.192-.457.517-.451.862.006.346.188.664.482.844zm177.741 173.408c.163.099.343.145.521.145.344 0 .679-.175.869-.49.289-.48.134-1.103-.346-1.391l-11.046-6.645c-.48-.291-1.102-.134-1.391.346-.289.479-.134 1.102.346 1.39zm-160.036-204.283 11.047 6.645c.163.099.343.146.521.146.344 0 .679-.176.87-.491.288-.48.133-1.103-.346-1.391l-11.047-6.645c-.48-.291-1.103-.134-1.391.345-.288.48-.133 1.103.346 1.391zm149.936 266.147c.172 0 .347-.044.506-.136l10.1-5.831c.485-.279.651-.899.371-1.384-.279-.484-.898-.652-1.384-.372l-10.1 5.831c-.485.281-.651.9-.372 1.385.188.325.529.507.879.507zm-94.8-22.925-10.1 5.83c-.485.281-.651.901-.372 1.385.188.325.529.507.879.507.172 0 .346-.043.506-.136l10.1-5.83c.485-.28.651-.9.371-1.385-.28-.484-.9-.651-1.384-.371zm31.962-266.944c.171 0 .346-.044.505-.136l10.1-5.83c.485-.281.651-.9.372-1.385-.28-.484-.899-.653-1.385-.371l-10.1 5.83c-.484.281-.651.9-.371 1.385.188.325.528.507.879.507zm139.243 255.6c.172 0 .346-.044.506-.135l10.101-5.831c.484-.281.65-.9.371-1.385-.282-.484-.901-.652-1.385-.371l-10.101 5.831c-.484.28-.65.899-.371 1.385.189.324.529.506.879.506zm-170.444-239.449c-.28-.484-.899-.652-1.385-.371l-10.1 5.831c-.485.279-.651.899-.372 1.384.189.325.529.507.88.507.171 0 .345-.044.505-.135l10.101-5.832c.484-.279.65-.899.371-1.384zm246.335 240.509-21.197-13.029c-.317-.195-.714-.2-1.038-.015l-22.161 12.795c-.313.181-.507.516-.507.878v25.378c-.28-.116-.602-.122-.885.04l-21.579 12.349c-9.05 5.149-20.267 5.102-29.274-.121l-170.775-98.794c-.484-.282-1.104-.115-1.385.37-.28.485-.115 1.104.37 1.384l164.877 95.383-55.541 30.295c-.491.268-.672.884-.404 1.374.184.338.532.529.891.529.163 0 .33-.04.484-.124l55.744-30.406c.277-.15.442-.414.496-.701l4.227 2.444c4.852 2.815 10.304 4.223 15.758 4.223 5.368 0 10.738-1.365 15.536-4.095l21.46-12.281v27.174l-20.96 11.871c-.488.276-.659.894-.383 1.382.186.328.529.513.883.513.168 0 .34-.043.498-.131l21.475-12.163c.319-.18.515-.516.515-.881v-54.427l21.131-12.2 20.2 12.417v14.681c0 .561.453 1.014 1.014 1.014.559 0 1.012-.453 1.012-1.014v-15.249c0-.352-.182-.678-.482-.863zm-226.548-214.44v-10.579l-18.364 10.445 19.58 10.98 19.612-10.86-18.801-11.336v11.35c0 .56-.453 1.013-1.013 1.013s-1.014-.453-1.014-1.013zm-64.629-1.001 21.271-12.532v-24.78c0-.363.193-.697.507-.878l22.161-12.795c.323-.184.722-.179 1.037.014l21.197 13.03c.301.184.483.511.483.863v24.398c.074.023.146.052.213.092l21.136 12.744c.023.014.041.035.063.051.024.017.046.035.069.054.091.078.171.166.229.271 0 0 .001 0 .002.001.002.005.002.01.004.014.054.1.085.209.103.324.004.029.009.057.011.086.001.023.009.045.009.067v35.539l29.466-16.935c-.056-.125-.089-.262-.089-.409v-47.129c0-.346.176-.668.468-.854l23.818-15.203c.471-.301 1.099-.162 1.399.309.301.472.163 1.098-.308 1.4l-23.351 14.904v45.869l72.264-41.529c11.468-6.629 25.746-6.676 37.261-.118l12.102 6.986c.019-.002.036-.012.054-.013l36.903.69c1.875.046 3.651-.52 4.985-1.564 1.272-.996 1.987-2.319 2.014-3.727.026-1.407-.639-2.757-1.874-3.8-1.293-1.092-3.042-1.714-4.921-1.748l-22.942-.429c-4.921-.093-8.861-3.508-8.785-7.613l.013-.668c.038-2.029 1.029-3.907 2.791-5.286 1.699-1.329 3.926-2.018 6.272-1.994l45.799.285c.56.004 1.007015.46 1.007015 1.019-.004015.559-.457015 1.008-1.014015 1.008h-.007l-45.81-.285c-1.885-.037-3.664.52-4.998 1.564-1.273.996-1.987 2.319-2.013 3.726l-.013.669c-.055 2.987 2.994 5.477 6.796 5.548l22.941.429c2.344.043 4.545.834 6.193 2.228 1.709 1.443 2.629 3.356 2.592 5.385-.038 2.03-1.029 3.907-2.791 5.286-1.651 1.29-3.797 1.996-6.066 1.996-.069 0-.137-.001-.207-.002l-33.312-.623 32.763 18.911c.484.28.651.9.371 1.385-.281.482-.9.65-1.385.371l-48.467-27.975c-10.884-6.198-24.389-6.156-35.24.116l-137.488 79.013c-.159.091-.333.135-.504.135-.351 0-.693-.182-.88-.509-.279-.485-.112-1.105.374-1.383l32.226-18.521c-.256-.184-.434-.47-.434-.81v-33.924l-20.135 11.15c-.307.169-.68.169-.987-.004l-20.129-11.287v66.331c0 .56-.453 1.013-1.013 1.013s-1.014-.453-1.014-1.013v-68.061c0-.092.013-.181.037-.267.001-.003.003-.006.004-.01.03-.109.084-.207.148-.3.017-.023.033-.045.052-.067.073-.089.157-.171.26-.231.003-.002.006-.002.009-.004.001 0 .002-.001.003-.002l20.926-11.902v-24.601l-20.2-12.417-21.131 12.201v75.834c0 .56-.454 1.014-1.013 1.014-.56 0-1.014-.454-1.014-1.014v-49.287l-19.743 11.632v49.836c0 .56-.454 1.013-1.014 1.013-.559 0-1.013-.453-1.013-1.013v-50.415c0-.359.189-.691.499-.873zm99.372 17.137c.156.09.33.135.504.135.177 0 .354-.047.512-.139l12.16-7.114c.483-.284.645-.904.363-1.387s-.902-.646-1.387-.363l-10.634 6.221v-12.462c0-.56-.454-1.014-1.014-1.014s-1.014.454-1.014 1.014v14.23c0 .363.195.699.51.879zm185.087 231.135c.282.483.12 1.104-.363 1.387l-13.402 7.841c-.158.091-.335.138-.511.138-.175 0-.348-.045-.505-.135-.315-.179-.509-.515-.509-.878v-15.682c0-.561.454-1.014 1.014-1.014.559 0 1.013.453 1.013 1.014v13.914l11.876-6.948c.484-.281 1.105-.121 1.387.363z" fill="url(#a)" fill-rule="evenodd"/></svg>